<?xml version="1.0" encoding="UTF-8"?>
<svg version="1.1" xmlns="http://www.w3.org/2000/svg" width="394" height="393">
<path d="M0 0 C2.30582442 0.00315136 4.61034924 -0.02036856 6.91601562 -0.0456543 C20.76885272 -0.10541767 34.11754792 1.84612339 47.38476562 5.94067383 C48.20533447 6.19155762 49.02590332 6.44244141 49.87133789 6.70092773 C80.77283459 16.54216872 107.85113417 35.57669711 127.57226562 61.31567383 C128.17039062 62.0865332 128.76851563 62.85739258 129.38476562 63.65161133 C140.80606646 79.14439441 148.43427601 96.56999182 153.82226562 114.94067383 C154.06879883 115.7751001 154.31533203 116.60952637 154.56933594 117.46923828 C157.95476212 129.50669935 158.92329795 141.30769539 158.88793945 153.7434082 C158.8847881 156.04923262 158.90830801 158.35375745 158.93359375 160.65942383 C158.99335254 174.51119732 157.04393163 187.86243241 152.94726562 201.12817383 C152.567677 202.36337769 152.567677 202.36337769 152.18041992 203.62353516 C143.1930033 231.74287158 125.94235707 258.90287451 102.57226562 277.31567383 C102.07307617 277.71077148 101.57388672 278.10586914 101.05957031 278.51293945 C72.57449663 300.83148238 39.04895213 312.81233713 2.82226562 312.62817383 C2.07558624 312.62635101 1.32890686 312.6245282 0.55960083 312.62265015 C-10.69085262 312.57646095 -21.47812117 312.05307713 -32.42773438 309.31567383 C-33.09869141 309.15470215 -33.76964844 308.99373047 -34.4609375 308.82788086 C-76.664864 298.49526386 -109.6495128 272.01288495 -132.69726562 235.80395508 C-140.13358702 223.41008609 -145.35093973 209.81646749 -149.30273438 195.94067383 C-149.49375732 195.27712891 -149.68478027 194.61358398 -149.8815918 193.92993164 C-153.17260974 181.62555434 -153.80612799 169.22042021 -153.74023438 156.56567383 C-153.73807922 155.81799744 -153.73592407 155.07032104 -153.73370361 154.29998779 C-153.68181142 143.06757787 -153.25912725 132.23089852 -150.42773438 121.31567383 C-150.234375 120.54223633 -150.04101562 119.76879883 -149.84179688 118.97192383 C-143.70169082 95.01792983 -132.74956252 72.98191002 -116.42773438 54.31567383 C-115.7688623 53.55843018 -115.7688623 53.55843018 -115.09667969 52.78588867 C-108.43212379 45.18053392 -101.51028084 38.44200977 -93.42773438 32.31567383 C-92.57953125 31.65180664 -91.73132813 30.98793945 -90.85742188 30.30395508 C-74.76597365 18.07925785 -56.36867973 9.93436902 -36.99023438 4.44067383 C-36.31814941 4.24957031 -35.64606445 4.0584668 -34.95361328 3.86157227 C-23.38081633 0.7818277 -11.91204427 -0.03386954 0 0 Z " fill="#8FAEEF" transform="translate(193.427734375,39.684326171875)"/>
<path d="M0 0 C10.82375231 9.64175859 20.49651805 19.83763373 29.03222656 31.56616211 C29.44537109 32.12964355 29.85851562 32.693125 30.28417969 33.27368164 C59.60995127 73.78832725 71.83622441 125.19144156 64.90722656 174.69116211 C56.89813012 224.55185864 30.36684605 272.1949359 -10.73339844 302.30444336 C-11.80074219 303.05081055 -12.86808594 303.79717773 -13.96777344 304.56616211 C-14.55236328 304.97914551 -15.13695312 305.39212891 -15.73925781 305.81762695 C-44.89537065 326.30591559 -81.22654484 340.42096968 -117.18261719 340.80444336 C-117.94720749 340.81423721 -118.71179779 340.82403107 -119.4995575 340.8341217 C-166.16382357 341.30812364 -208.34418116 329.79139511 -245.96777344 301.56616211 C-246.89460938 300.88553711 -247.82144531 300.20491211 -248.77636719 299.50366211 C-288.5845543 268.70044712 -313.2079139 222.81103696 -320.96777344 173.56616211 C-321.07379883 172.89931396 -321.17982422 172.23246582 -321.2890625 171.54541016 C-322.36980091 163.50862871 -322.21167745 155.34830754 -322.21777344 147.25366211 C-322.21844818 146.44936768 -322.21912292 145.64507324 -322.21981812 144.81640625 C-322.20339598 132.48783178 -321.64448006 120.64032201 -318.96777344 108.56616211 C-318.71833984 107.37144287 -318.71833984 107.37144287 -318.46386719 106.15258789 C-310.90766676 70.49151978 -293.44403022 38.28594377 -268.33251953 11.99829102 C-267.01828877 10.61917158 -265.72116683 9.22380998 -264.42480469 7.82788086 C-201.09242162 -58.37889176 -90.92042599 -65.39607789 0 0 Z M-252.26660156 28.49829102 C-283.05118376 60.10491736 -299.23505058 103.91460375 -299.15112305 147.79882812 C-298.75663733 175.95019877 -291.70974812 203.95710285 -277.96777344 228.56616211 C-277.6198877 229.1971582 -277.27200195 229.8281543 -276.91357422 230.47827148 C-262.56306681 256.25007518 -241.86732417 276.97058902 -216.96777344 292.56616211 C-215.50984375 293.50395508 -215.50984375 293.50395508 -214.02246094 294.46069336 C-194.0931987 306.75688162 -171.02221262 313.46446045 -147.96777344 316.56616211 C-146.66066406 316.76338867 -146.66066406 316.76338867 -145.32714844 316.96459961 C-121.96100009 319.98749293 -97.30043516 316.61535543 -74.96777344 309.56616211 C-74.30970703 309.3618457 -73.65164062 309.1575293 -72.97363281 308.94702148 C-51.30155105 302.03039965 -30.8094452 290.14446349 -14.19824219 274.64428711 C-12.14994722 272.7358932 -10.04741747 270.92991485 -7.90527344 269.12866211 C25.00294961 240.16154362 41.21594555 195.27975749 44.03222656 152.56616211 C46.49952338 110.62211621 30.70591017 66.94418266 3.38378906 35.33300781 C-10.09483659 20.2005777 -24.35159134 7.73569112 -41.96777344 -2.43383789 C-43.04800781 -3.0796582 -44.12824219 -3.72547852 -45.24121094 -4.39086914 C-113.24016797 -43.78940648 -198.56573382 -25.39135149 -252.26660156 28.49829102 Z " fill="#8FAEEE" transform="translate(323.9677734375,49.433837890625)"/>
<path d="M0 0 C3 2.0625 3 2.0625 5 4 C5.495 3.731875 5.99 3.46375 6.5 3.1875 C7.7375 2.5996875 7.7375 2.5996875 9 2 C10.0725 1.443125 11.145 0.88625 12.25 0.3125 C19.27901543 -2.25071239 29.03827475 -1.84330272 35.8125 1.30859375 C37.84207623 2.7619153 39.49452491 4.00920728 41 6 C41 6.99 41 7.98 41 9 C41.65742188 8.41992188 41.65742188 8.41992188 42.328125 7.828125 C49.43819401 1.98977565 58.22802849 -1.8445922 67.58203125 -1.31640625 C77.62908082 -0.00168732 84.8780367 1.55920783 91.3046875 9.640625 C95.29445616 15.96922356 95.13347676 23.83683564 94 31 C91.83158851 39.46145975 88.54154325 47.59879569 85.4375 55.75 C84.62732422 57.92885847 83.81936691 60.10854317 83.01367188 62.2890625 C80.00381275 70.40992088 76.95702434 78.51612637 73.84814453 86.59960938 C73.20208747 88.3007581 72.55608782 90.00192862 71.91015625 91.703125 C71.61265976 92.46187927 71.31516327 93.22063354 71.00865173 94.00238037 C69.44652063 98.13966681 68.56769847 101.49991813 69 106 C70.03424909 107.23528518 70.03424909 107.23528518 72.25 107.3125 C75.91310528 106.89623804 77.27659356 105.44814637 80 103 C85.55321607 95.98055017 88.470486 88.48765836 91 80 C91.68650919 78.04693642 92.41610339 76.11771706 93.1640625 74.1875 C93.82929478 72.44670524 94.46312583 70.69391852 95.0859375 68.9375 C99.32960098 57.260668 103.83953546 49.14165808 115 43 C123.3989705 39.377868 135.29574243 39.43569467 144.0625 41.83984375 C150.0476178 44.92592011 155.20580718 50.33308067 158.16015625 56.37109375 C160.54526246 63.83703085 159.76009043 71.33214159 156.5 78.375 C151.56125868 87.08096725 145.75493033 91.53681507 136.1484375 94.34375 C127.24779703 96.19897035 119.45462549 95.14242717 111 92 C111.33 92.33 111.66 92.66 112 93 C112.20839236 94.45295785 112.36753581 95.9131631 112.5 97.375 C112.75521162 100.17321314 113.1027017 102.30810511 114 105 C116.37625345 106.18391223 116.37625345 106.18391223 119 107 C119.99 107.33 120.98 107.66 122 108 C122 108.66 122 109.32 122 110 C135.55308034 108.40798438 146.26733327 104.97748644 155.328125 94.29296875 C157.6433971 91.11758389 159.31823892 87.76205396 160.95703125 84.19921875 C162 82 162 82 164 79 C166.86328125 78.56640625 166.86328125 78.56640625 170.3125 78.5625 C171.44300781 78.54316406 172.57351563 78.52382812 173.73828125 78.50390625 C177.62866052 79.09561663 179.29882555 80.17283793 182 83 C182.51136844 92.54554424 176.65700272 101.45747896 170.5625 108.375 C169.06013472 109.93466942 167.54080046 111.4782891 166 113 C165.44699219 113.57492188 164.89398438 114.14984375 164.32421875 114.7421875 C154.18591419 124.45282165 141.36037018 126.24303852 128 127 C126.89140625 127.0825 125.7828125 127.165 124.640625 127.25 C112.38479004 127.7687655 102.4474347 123.59206942 93 116 C92.9071875 116.60585937 92.814375 117.21171875 92.71875 117.8359375 C91.58747394 121.24206216 89.29804043 122.16676124 86.2890625 123.89453125 C78.02747246 127.88434351 67.12254362 128.6463235 58.3125 126.27734375 C51.45113081 123.41457654 45.73275667 119.29879411 42.70703125 112.3203125 C38.3777794 98.1127125 46.86678287 82.67684053 51.78865051 69.55290222 C53.16347239 65.88180345 54.529043 62.20727802 55.89547729 58.53305054 C56.92415125 55.78565204 57.97122148 53.04577006 59.01977539 50.3059082 C59.66879362 48.57397844 60.31717559 46.84181008 60.96484375 45.109375 C61.27078461 44.32557968 61.57672546 43.54178436 61.89193726 42.73423767 C63.80387574 37.55346426 64.90659118 32.53472704 64 27 C63.01 26.01 63.01 26.01 62 25 C57.23895216 25.09155861 53.92386301 26.02772408 50.38879395 29.32281494 C44.31683911 36.6556464 41.74029701 46.83955384 38.65625 55.703125 C38.16029077 57.1128148 37.66373726 58.52229564 37.16662598 59.93157959 C35.86737331 63.61975751 34.57589562 67.31060946 33.28619385 71.00213623 C31.98570143 74.7204683 30.67820523 78.43633443 29.37109375 82.15234375 C27.66628588 87.00012879 25.96342536 91.84857513 24.26662445 96.69916916 C23.61075326 98.57073928 22.95103923 100.4409613 22.29125977 102.31115723 C21.40640061 104.83900359 20.53653912 107.36826765 19.68334961 109.90661621 C19.25739502 111.15140747 18.83144043 112.39619873 18.39257812 113.67871094 C18.01879028 114.78986267 17.64500244 115.9010144 17.2598877 117.0458374 C15.26529926 121.72271343 12.62326841 124.83674772 8 127 C2.83932648 128.0336008 -2.04997931 128.00289735 -6.625 125.1875 C-9.54816876 122.49510773 -9.91586019 120.8866931 -10.28662109 116.97949219 C-9.90562232 111.68964552 -8.25602991 107.27323107 -6.4140625 102.328125 C-6.04106018 101.30019333 -5.66805786 100.27226166 -5.28375244 99.21318054 C-4.48622034 97.0205454 -3.68345718 94.82980706 -2.87591553 92.64083862 C-1.62046092 89.23769599 -0.37920767 85.82965892 0.85888672 82.42016602 C4.31416664 72.92562104 7.80491018 63.4459483 11.421875 54.01171875 C11.89061035 52.78098633 12.3593457 51.55025391 12.84228516 50.28222656 C13.66610961 48.13407373 14.50323136 45.99094716 15.35693359 43.85449219 C17.62688256 37.95812409 18.58997556 33.33282281 18 27 C16.08071951 24.67642006 16.08071951 24.67642006 12.75 24.5625 C9.03480604 24.99593929 7.1189998 25.64026031 4.39289856 28.20910645 C-0.93694259 35.0618511 -3.44054064 44.61768411 -6.29296875 52.71875 C-6.68086578 53.80792725 -7.06876282 54.89710449 -7.46841431 56.01928711 C-8.28993394 58.32702857 -9.10947725 60.63547441 -9.92715454 62.94458008 C-11.1980502 66.52976199 -12.47701702 70.11196528 -13.75854492 73.69335938 C-18.68396862 87.45801976 -18.68396862 87.45801976 -23.53599548 101.24865723 C-24.22071591 103.20643223 -24.91278771 105.16139293 -25.60864258 107.11523438 C-26.38152226 109.28826294 -27.14042972 111.46634051 -27.8815918 113.65039062 C-29.96031782 119.43414892 -31.83408562 122.57722886 -37 126 C-41.2952783 127.80124574 -46.32819282 127.45594741 -50.75 126.25 C-53.37221366 124.79321463 -54.4121734 123.5313411 -56 121 C-57.39154422 113.66237784 -55.04011075 106.97433313 -52.4765625 100.1875 C-51.91677956 98.64601036 -51.91677956 98.64601036 -51.34568787 97.07337952 C-50.12044751 93.70988369 -48.87304409 90.35509368 -47.625 87 C-46.76597117 84.65737852 -45.90848923 82.31418927 -45.05249023 79.97045898 C-43.72455831 76.33706718 -42.39481169 72.704407 -41.05851746 69.07408142 C-37.94000417 60.60138083 -34.88647883 52.10756201 -31.87109375 43.59765625 C-31.05465909 41.30008246 -30.23809245 39.00255557 -29.42138672 36.70507812 C-28.24803992 33.40394617 -27.07651103 30.10224361 -25.91168213 26.7980957 C-24.83550444 23.74932558 -23.74902981 20.70441091 -22.66015625 17.66015625 C-22.34735214 16.76563248 -22.03454803 15.8711087 -21.71226501 14.94947815 C-19.49903158 8.80361738 -17.5725823 3.53365484 -11.75 0.0625 C-7.05597494 -1.26747377 -4.73818235 -1.14633444 0 0 Z " fill="#FCFDFE" transform="translate(142,137)"/>
<path d="M0 0 C10.82375231 9.64175859 20.49651805 19.83763373 29.03222656 31.56616211 C29.44537109 32.12964355 29.85851562 32.693125 30.28417969 33.27368164 C59.60995127 73.78832725 71.83622441 125.19144156 64.90722656 174.69116211 C56.89813012 224.55185864 30.36684605 272.1949359 -10.73339844 302.30444336 C-11.80074219 303.05081055 -12.86808594 303.79717773 -13.96777344 304.56616211 C-14.55236328 304.97914551 -15.13695312 305.39212891 -15.73925781 305.81762695 C-44.89537065 326.30591559 -81.22654484 340.42096968 -117.18261719 340.80444336 C-117.94720749 340.81423721 -118.71179779 340.82403107 -119.4995575 340.8341217 C-166.16382357 341.30812364 -208.34418116 329.79139511 -245.96777344 301.56616211 C-246.89460938 300.88553711 -247.82144531 300.20491211 -248.77636719 299.50366211 C-288.5845543 268.70044712 -313.2079139 222.81103696 -320.96777344 173.56616211 C-321.07379883 172.89931396 -321.17982422 172.23246582 -321.2890625 171.54541016 C-322.36980091 163.50862871 -322.21167745 155.34830754 -322.21777344 147.25366211 C-322.21844818 146.44936768 -322.21912292 145.64507324 -322.21981812 144.81640625 C-322.20339598 132.48783178 -321.64448006 120.64032201 -318.96777344 108.56616211 C-318.71833984 107.37144287 -318.71833984 107.37144287 -318.46386719 106.15258789 C-310.90766676 70.49151978 -293.44403022 38.28594377 -268.33251953 11.99829102 C-267.01828877 10.61917158 -265.72116683 9.22380998 -264.42480469 7.82788086 C-201.09242162 -58.37889176 -90.92042599 -65.39607789 0 0 Z M-180.96777344 -36.43383789 C-182.18762939 -36.07032227 -182.18762939 -36.07032227 -183.43212891 -35.69946289 C-195.57605749 -32.01359876 -206.84816915 -27.54033672 -217.96777344 -21.43383789 C-218.5770166 -21.10770508 -219.18625977 -20.78157227 -219.81396484 -20.44555664 C-228.44218592 -15.8217328 -236.29576325 -10.51453828 -243.96777344 -4.43383789 C-244.82371094 -3.78286133 -245.67964844 -3.13188477 -246.56152344 -2.46118164 C-260.39435422 8.35092555 -272.7630636 21.29238431 -282.96777344 35.56616211 C-283.39638672 36.16106445 -283.825 36.7559668 -284.26660156 37.36889648 C-290.87073474 46.63043049 -296.17548912 56.26421758 -300.96777344 66.56616211 C-301.75087891 68.18844727 -301.75087891 68.18844727 -302.54980469 69.84350586 C-309.81124153 85.65006362 -314.18468235 102.75928106 -316.45996094 119.96069336 C-316.96777344 123.56616211 -316.96777344 123.56616211 -317.96777344 126.56616211 C-318.08904984 129.20906903 -318.15543134 131.8247302 -318.17089844 134.46850586 C-318.17795807 135.25370605 -318.1850177 136.03890625 -318.19229126 136.84790039 C-318.4410706 160.86868912 -318.4410706 160.86868912 -314.96777344 184.56616211 C-314.68571045 185.87834717 -314.68571045 185.87834717 -314.39794922 187.21704102 C-307.38240351 219.29209366 -292.45448346 249.30104199 -270.00683594 273.37475586 C-268.13223067 275.38941785 -266.36101491 277.45851883 -264.59277344 279.56616211 C-253.49563448 292.20879303 -239.62873062 301.84320052 -225.40527344 310.62866211 C-224.65560303 311.09393311 -223.90593262 311.5592041 -223.13354492 312.03857422 C-219.16968815 314.43687037 -215.46727654 316.30800721 -210.96777344 317.56616211 C-210.96777344 318.55616211 -210.96777344 319.54616211 -210.96777344 320.56616211 C-202.10629699 324.2685598 -193.36743703 326.89463387 -184.04248047 329.07348633 C-181.23856958 329.73932443 -178.44770574 330.45312466 -175.65551758 331.16625977 C-146.64365089 338.548851 -115.19290306 339.4587737 -85.96777344 332.56616211 C-85.1553418 332.38956055 -84.34291016 332.21295898 -83.50585938 332.03100586 C-46.33340996 323.93373975 -9.31001231 301.83913168 15.03222656 272.56616211 C15.79148437 271.69475586 16.55074219 270.82334961 17.33300781 269.92553711 C38.93480842 244.79622629 52.15194924 215.12915489 58.71972656 182.81616211 C58.93443604 181.76251465 59.14914551 180.70886719 59.37036133 179.62329102 C61.64737195 168.05720511 62.27211723 156.85142202 62.28222656 145.06616211 C62.28290131 144.35551605 62.28357605 143.64487 62.28427124 142.91268921 C62.26883369 132.65364167 61.84933586 122.74684503 59.52832031 112.71948242 C58.98004573 110.33966854 58.4912608 107.95075512 58.00097656 105.55834961 C50.67712714 71.16241395 33.62132587 40.3572347 9.39697266 14.99829102 C8.0827419 13.61917158 6.78561995 12.22380998 5.48925781 10.82788086 C-21.70755399 -17.60327943 -59.51630918 -34.98270003 -97.96777344 -41.43383789 C-99.55803345 -41.70236572 -99.55803345 -41.70236572 -101.18041992 -41.97631836 C-109.81567129 -43.32338932 -118.23400496 -43.78386688 -126.96777344 -43.74633789 C-127.971082 -43.74410217 -127.971082 -43.74410217 -128.99465942 -43.74182129 C-146.71945571 -43.67135855 -163.96395942 -41.52373157 -180.96777344 -36.43383789 Z " fill="#9A9FA9" transform="translate(323.9677734375,49.433837890625)"/>
<path d="M0 0 C2.30582442 0.00315136 4.61034924 -0.02036856 6.91601562 -0.0456543 C20.76885272 -0.10541767 34.11754792 1.84612339 47.38476562 5.94067383 C48.20533447 6.19155762 49.02590332 6.44244141 49.87133789 6.70092773 C80.77283459 16.54216872 107.85113417 35.57669711 127.57226562 61.31567383 C128.17039062 62.0865332 128.76851563 62.85739258 129.38476562 63.65161133 C140.80606646 79.14439441 148.43427601 96.56999182 153.82226562 114.94067383 C154.06879883 115.7751001 154.31533203 116.60952637 154.56933594 117.46923828 C157.95476212 129.50669935 158.92329795 141.30769539 158.88793945 153.7434082 C158.8847881 156.04923262 158.90830801 158.35375745 158.93359375 160.65942383 C158.99335254 174.51119732 157.04393163 187.86243241 152.94726562 201.12817383 C152.567677 202.36337769 152.567677 202.36337769 152.18041992 203.62353516 C143.1930033 231.74287158 125.94235707 258.90287451 102.57226562 277.31567383 C102.07307617 277.71077148 101.57388672 278.10586914 101.05957031 278.51293945 C72.57449663 300.83148238 39.04895213 312.81233713 2.82226562 312.62817383 C2.07558624 312.62635101 1.32890686 312.6245282 0.55960083 312.62265015 C-10.69085262 312.57646095 -21.47812117 312.05307713 -32.42773438 309.31567383 C-33.09869141 309.15470215 -33.76964844 308.99373047 -34.4609375 308.82788086 C-76.664864 298.49526386 -109.6495128 272.01288495 -132.69726562 235.80395508 C-140.13358702 223.41008609 -145.35093973 209.81646749 -149.30273438 195.94067383 C-149.49375732 195.27712891 -149.68478027 194.61358398 -149.8815918 193.92993164 C-153.17260974 181.62555434 -153.80612799 169.22042021 -153.74023438 156.56567383 C-153.73807922 155.81799744 -153.73592407 155.07032104 -153.73370361 154.29998779 C-153.68181142 143.06757787 -153.25912725 132.23089852 -150.42773438 121.31567383 C-150.234375 120.54223633 -150.04101562 119.76879883 -149.84179688 118.97192383 C-143.70169082 95.01792983 -132.74956252 72.98191002 -116.42773438 54.31567383 C-115.7688623 53.55843018 -115.7688623 53.55843018 -115.09667969 52.78588867 C-108.43212379 45.18053392 -101.51028084 38.44200977 -93.42773438 32.31567383 C-92.57953125 31.65180664 -91.73132813 30.98793945 -90.85742188 30.30395508 C-74.76597365 18.07925785 -56.36867973 9.93436902 -36.99023438 4.44067383 C-36.31814941 4.24957031 -35.64606445 4.0584668 -34.95361328 3.86157227 C-23.38081633 0.7818277 -11.91204427 -0.03386954 0 0 Z M-114.42773438 57.31567383 C-129.92390669 75.82314729 -140.21753192 97.30716347 -146.24023438 120.56567383 C-146.44753174 121.35707764 -146.6548291 122.14848145 -146.8684082 122.96386719 C-156.03745738 160.46377012 -147.28009726 202.95439481 -127.70507812 235.71020508 C-124.30319262 241.19529211 -120.48706734 246.30159644 -116.42773438 251.31567383 C-116.00234375 251.84789551 -115.57695313 252.38011719 -115.13867188 252.9284668 C-105.54203738 264.88567696 -94.73289706 274.58166578 -82.06640625 283.19897461 C-80.60972923 284.19165052 -79.16616732 285.20351076 -77.72460938 286.21801758 C-53.86985663 302.35290402 -24.91789381 308.50140621 3.44726562 308.62817383 C4.63505615 308.63381348 5.82284668 308.63945312 7.04663086 308.64526367 C18.57523474 308.55085218 29.822341 307.10893629 40.94726562 304.06567383 C41.7476123 303.84878906 42.54795898 303.6319043 43.37255859 303.40844727 C66.69596492 296.91355535 87.67739117 285.96042591 105.38867188 269.32348633 C107.57226563 267.31567383 107.57226563 267.31567383 110.15039062 265.27270508 C113.78430191 262.33627031 116.60664192 258.91142031 119.57226562 255.31567383 C120.32636719 254.41075195 121.08046875 253.50583008 121.85742188 252.57348633 C137.97415205 232.49781292 148.10674912 209.38760428 153.57226562 184.31567383 C153.75772949 183.49494385 153.94319336 182.67421387 154.13427734 181.82861328 C155.7294054 174.09558616 155.95856065 166.50817212 155.94726562 158.62817383 C155.94638947 157.95336975 155.94551331 157.27856567 155.9446106 156.58331299 C155.77979002 117.79173638 142.03792701 80.86930236 115.57226562 52.31567383 C115.0953125 51.80020996 114.61835938 51.28474609 114.12695312 50.75366211 C92.09079186 27.23713039 62.32954003 11.04570301 30.57226562 5.31567383 C29.03505859 5.01016602 29.03505859 5.01016602 27.46679688 4.69848633 C-26.54567589 -4.37610633 -78.48479824 17.17463133 -114.42773438 57.31567383 Z " fill="#B4AB52" transform="translate(193.427734375,39.684326171875)"/>
<path d="M0 0 C0.8042038 -0.00073517 1.60840759 -0.00147034 2.4369812 -0.00222778 C49.56054035 0.11009727 92.1695241 19.42699254 125.5625 52.25 C147.58216634 74.46412988 162.16759349 102.41146974 170.3125 132.4375 C170.5398584 133.26185547 170.7672168 134.08621094 171.00146484 134.93554688 C177.88773744 161.21030258 176.70175202 192.47954715 169.3125 218.4375 C169.06612793 219.32953125 168.81975586 220.2215625 168.56591797 221.140625 C162.69715829 241.84588158 153.3472766 261.31248283 140.3125 278.4375 C139.63316406 279.35789062 138.95382812 280.27828125 138.25390625 281.2265625 C127.11259005 295.60385553 113.55830343 308.52464158 98.3125 318.4375 C97.42280518 319.02168701 97.42280518 319.02168701 96.51513672 319.61767578 C58.19371842 344.46891287 11.27897205 354.25276621 -33.78930664 345.41503906 C-50.59642127 341.64562927 -66.63321499 335.77588979 -81.6875 327.4375 C-82.89668503 326.79342456 -84.10631949 326.15019216 -85.31640625 325.5078125 C-93.78371673 320.93126236 -101.27867217 315.52881765 -108.6875 309.4375 C-109.56220947 308.7252124 -109.56220947 308.7252124 -110.45458984 307.99853516 C-145.95490122 278.94410577 -166.96806113 237.74590762 -172.6875 192.4375 C-172.81118304 189.68866567 -172.89707453 186.96406618 -172.92578125 184.21484375 C-172.93552979 183.44045456 -172.94527832 182.66606537 -172.95532227 181.86820984 C-173.1234746 165.04929843 -173.0949063 148.80021895 -168.6875 132.4375 C-168.49494629 131.71030762 -168.30239258 130.98311523 -168.10400391 130.23388672 C-156.19085318 86.53242904 -127.98819307 47.19093243 -88.47558594 24.45703125 C-87.88551758 24.12058594 -87.29544922 23.78414062 -86.6875 23.4375 C-86.05360352 23.07269531 -85.41970703 22.70789063 -84.76660156 22.33203125 C-70.82772008 14.3901892 -56.34921672 8.80892117 -40.875 4.625 C-40.15973145 4.4300293 -39.44446289 4.23505859 -38.70751953 4.03417969 C-25.9300834 0.76560027 -13.11968053 -0.00525689 0 0 Z M-123.98632812 56.36962891 C-154.77091032 87.97625525 -170.95477714 131.78594164 -170.87084961 175.67016602 C-170.47636389 203.82153666 -163.42947468 231.82844074 -149.6875 256.4375 C-149.33961426 257.06849609 -148.99172852 257.69949219 -148.63330078 258.34960938 C-134.28279337 284.12141307 -113.58705074 304.84192691 -88.6875 320.4375 C-87.22957031 321.37529297 -87.22957031 321.37529297 -85.7421875 322.33203125 C-65.81292526 334.62821951 -42.74193919 341.33579834 -19.6875 344.4375 C-18.38039062 344.63472656 -18.38039062 344.63472656 -17.046875 344.8359375 C6.31927334 347.85883082 30.97983827 344.48669332 53.3125 337.4375 C53.97056641 337.23318359 54.62863281 337.02886719 55.30664062 336.81835938 C76.97872238 329.90173754 97.47082824 318.01580138 114.08203125 302.515625 C116.13032622 300.60723109 118.23285597 298.80125274 120.375 297 C153.28322304 268.03288151 169.49621899 223.15109538 172.3125 180.4375 C174.77979682 138.4934541 158.98618361 94.81552055 131.6640625 63.2043457 C118.18543685 48.07191559 103.9286821 35.60702901 86.3125 25.4375 C85.23226562 24.79167969 84.15203125 24.14585938 83.0390625 23.48046875 C15.04010547 -15.91806858 -70.28546038 2.4799864 -123.98632812 56.36962891 Z " fill="#A5A7AC" transform="translate(195.6875,21.5625)"/>
<path d="M0 0 C0 0.66 0 1.32 0 2 C1.21236328 2.13921875 1.21236328 2.13921875 2.44921875 2.28125 C6.84678041 3.1714055 10.69983537 4.73766928 14.8125 6.5 C16.05567993 7.02968384 16.05567993 7.02968384 17.32397461 7.57006836 C31.69094099 13.80308783 45.9033806 20.75137212 57 32 C58.7601867 33.63652635 60.53130919 35.2613597 62.3125 36.875 C63.27285156 37.74640625 64.23320312 38.6178125 65.22265625 39.515625 C67.53857818 41.58725136 69.88263566 43.61297105 72.25 45.625 C75.60076366 48.52351335 78.45309312 51.68354521 81.26171875 55.10546875 C83.01797507 57.12719112 83.01797507 57.12719112 85.5078125 58.9375 C88.09474142 61.0784067 89.47385985 62.94468576 91.1875 65.8125 C93.60544185 69.76865322 96.09261914 73.64396315 98.70507812 77.47241211 C108.82284885 92.33813369 108.82284885 92.33813369 112 100 C111.67 100.99 111.34 101.98 111 103 C108.42988655 99.87619652 106.5910503 96.50741603 104.68969727 92.9597168 C81.25368448 49.26336463 41.63651314 16.69363317 -5.8125 2.125 C-14.47142303 -0.43572682 -23.09131396 -2.5053583 -32 -4 C-33.59026001 -4.26852783 -33.59026001 -4.26852783 -35.21264648 -4.54248047 C-43.84789785 -5.88955143 -52.26623153 -6.35002899 -61 -6.3125 C-62.00330856 -6.31026428 -62.00330856 -6.31026428 -63.02688599 -6.3079834 C-80.75168227 -6.23752066 -97.99618598 -4.08989368 -115 1 C-116.21985596 1.36351562 -116.21985596 1.36351562 -117.46435547 1.734375 C-129.60828405 5.42023913 -140.88039572 9.89350117 -152 16 C-152.60924316 16.32613281 -153.21848633 16.65226562 -153.84619141 16.98828125 C-162.47412958 21.61195348 -170.3292089 26.91808333 -178 33 C-178.86753906 33.66257813 -179.73507813 34.32515625 -180.62890625 35.0078125 C-194.10260111 45.56990415 -206.02698409 58.10114752 -216 72 C-216.43006348 72.59635254 -216.86012695 73.19270508 -217.30322266 73.80712891 C-223.90547285 83.06701243 -229.20876517 92.70031154 -234 103 C-234.78310547 104.62228516 -234.78310547 104.62228516 -235.58203125 106.27734375 C-242.84346809 122.08390151 -247.21690891 139.19311895 -249.4921875 156.39453125 C-250 160 -250 160 -251 163 C-251.12127641 165.64290692 -251.18765791 168.2585681 -251.203125 170.90234375 C-251.21018463 171.68754395 -251.21724426 172.47274414 -251.22451782 173.28173828 C-251.47329716 197.30252701 -251.47329716 197.30252701 -248 221 C-247.71793701 222.31218506 -247.71793701 222.31218506 -247.43017578 223.65087891 C-240.41493694 255.72452857 -225.48807115 285.73082546 -203.04296875 309.8046875 C-201.14741711 311.84159003 -199.35319182 313.93370553 -197.5625 316.0625 C-183.57882544 331.98923641 -164.01942976 344.86586628 -145 354 C-148.41517605 355.14087963 -148.86589187 355.06135062 -152.3984375 353.4453125 C-153.7317635 352.68540933 -155.05689733 351.91101297 -156.375 351.125 C-157.0760083 350.71950928 -157.7770166 350.31401855 -158.49926758 349.89624023 C-164.46496571 346.41003749 -170.26252731 342.67819861 -176.01171875 338.84765625 C-178.83926578 336.96632512 -178.83926578 336.96632512 -181.55859375 336.0390625 C-187.2221578 333.62864964 -191.59342935 328.2373701 -196 324 C-196.60231445 323.43023437 -197.20462891 322.86046875 -197.82519531 322.2734375 C-229.29862981 292.42708917 -248.28465154 252.61629906 -255 210 C-255.10602539 209.33315186 -255.21205078 208.66630371 -255.32128906 207.97924805 C-256.40202748 199.9424666 -256.24390401 191.78214543 -256.25 183.6875 C-256.25067474 182.88320557 -256.25134949 182.07891113 -256.25204468 181.25024414 C-256.23562254 168.92166967 -255.67670662 157.0741599 -253 145 C-252.75056641 143.80528076 -252.75056641 143.80528076 -252.49609375 142.58642578 C-247.90304531 120.90978882 -240.00409188 94.00409188 -224 78 C-222.70480005 75.83379456 -222.70480005 75.83379456 -222 74 C-221.34 74 -220.68 74 -220 74 C-219.7525 73.278125 -219.505 72.55625 -219.25 71.8125 C-217.03579798 66.83054546 -213.80867911 63.79612181 -209.609375 60.41796875 C-207.8741798 58.88914385 -206.43202437 57.26457456 -204.9375 55.5 C-201.10782113 50.99348751 -196.93231967 46.87505787 -192.70678711 42.74414062 C-190.16304032 40.2398585 -187.8455981 37.80355798 -185.6328125 34.98828125 C-182.3193877 31.22749494 -178.62343231 28.62198885 -174.5 25.8125 C-173.75363281 25.29236328 -173.00726563 24.77222656 -172.23828125 24.23632812 C-167.0650537 20.65169346 -162.0642602 17.40779034 -156.21875 15.0234375 C-152.10272092 13.12484662 -148.20818881 10.78238046 -144.28125 8.5234375 C-140.78853861 6.9018215 -137.81632175 6.35657552 -134 6 C-134 5.34 -134 4.68 -134 4 C-131.10391685 2.40284659 -128.56599908 1.61260854 -125.3125 1.0625 C-121.00745411 0.26644862 -117.01699497 -0.90847009 -112.91015625 -2.4140625 C-111 -3 -111 -3 -108 -3 C-108 -3.66 -108 -4.32 -108 -5 C-106.87464844 -5.07347656 -106.87464844 -5.07347656 -105.7265625 -5.1484375 C-99.91882424 -5.57268035 -94.32168577 -6.19067427 -88.64453125 -7.5 C-59.66077714 -12.97994169 -27.9160644 -8.38857108 0 0 Z " fill="#9BA0AA" transform="translate(258,13)"/>
<path d="M0 0 C0.33 0 0.66 0 1 0 C1.17299658 12.26353554 1.17299658 12.26353554 0.5 17.875 C-1.44115954 35.71653991 1.10359275 53.80358176 6 71 C6.33810444 72.33213148 6.67319942 73.66505046 7 75 C7.66 75 8.32 75 9 75 C9.20044922 75.5576001 9.40089844 76.1152002 9.60742188 76.68969727 C21.63568514 109.87993052 39.88347939 136.72241112 69.34521484 156.8671875 C70.80745434 157.86818945 72.25816821 158.88598281 73.70703125 159.90625 C97.56832544 176.03369922 126.50666241 182.18571818 154.875 182.3125 C156.65668579 182.32095947 156.65668579 182.32095947 158.47436523 182.32958984 C170.00296912 182.23517835 181.25007537 180.79326247 192.375 177.75 C193.57552002 177.42467285 193.57552002 177.42467285 194.80029297 177.09277344 C219.51057171 170.21167779 242.924026 158.14515992 260.64453125 139.24609375 C262 138 262 138 264 138 C264.2475 137.42894531 264.495 136.85789062 264.75 136.26953125 C266.19565697 133.64476031 267.91674416 131.84143774 270 129.6875 C278.03703489 120.91276625 284.37090605 110.76179704 289.74609375 100.171875 C290.9717549 98.04892297 292.24745968 96.68676133 294 95 C298.39356195 87.53094468 300.55449874 79.25857802 303 71 C303.66 71 304.32 71 305 71 C299.3002303 101.57149205 278.25408825 132.89071835 254 152 C253.50081055 152.39509766 253.00162109 152.79019531 252.48730469 153.19726562 C224.00223101 175.51580856 190.47668651 187.4966633 154.25 187.3125 C153.50332062 187.31067719 152.75664124 187.30885437 151.98733521 187.30697632 C140.73688175 187.26078713 129.94961321 186.7374033 119 184 C118.32904297 183.83902832 117.65808594 183.67805664 116.96679688 183.51220703 C74.76287038 173.17959003 41.77822157 146.69721112 18.73046875 110.48828125 C11.29414736 98.09441226 6.07679465 84.50079366 2.125 70.625 C1.93397705 69.96145508 1.7429541 69.29791016 1.54614258 68.61425781 C-1.57403271 56.94862284 -2.3306518 45.19484381 -2.26074219 33.18652344 C-2.25000821 31.00167107 -2.26071795 28.81764045 -2.2734375 26.6328125 C-2.28107925 17.57275901 -1.5559741 8.94596498 0 0 Z " fill="#A19945" transform="translate(42,165)"/>
<path d="M0 0 C10.82375231 9.64175859 20.49651805 19.83763373 29.03222656 31.56616211 C29.44537109 32.12964355 29.85851562 32.693125 30.28417969 33.27368164 C36.04432281 41.23153389 40.8320745 49.62889047 45.40722656 58.31616211 C45.90730225 59.26225342 46.40737793 60.20834473 46.92260742 61.18310547 C50.12541017 67.39776528 53.24892667 73.77850506 55.03222656 80.56616211 C54.70222656 81.22616211 54.37222656 81.88616211 54.03222656 82.56616211 C51.14787723 78.44059687 48.89592563 74.49319942 47.34472656 69.69116211 C43.08606832 57.3273156 35.6394661 45.9830476 28.06347656 35.40600586 C25.76675907 32.19501813 23.62722356 28.901466 21.51660156 25.56616211 C19.58689692 22.96613901 17.3531337 20.8223156 15.03222656 18.56616211 C14.16984375 17.69217773 13.30746094 16.81819336 12.41894531 15.91772461 C4.78079239 8.20219532 -3.11548599 1.14971806 -11.67089844 -5.53930664 C-13.96777344 -7.43383789 -13.96777344 -7.43383789 -15.83496094 -9.40258789 C-18.56337898 -12.00108126 -21.61212802 -13.85025177 -24.84277344 -15.74633789 C-25.5026123 -16.13660156 -26.16245117 -16.52686523 -26.84228516 -16.92895508 C-39.32294557 -24.22149455 -52.23429115 -29.91732065 -65.96777344 -34.43383789 C-65.96777344 -35.09383789 -65.96777344 -35.75383789 -65.96777344 -36.43383789 C-69.30080035 -37.1020427 -72.63421964 -37.76826681 -75.96777344 -38.43383789 C-76.80469727 -38.60141602 -77.64162109 -38.76899414 -78.50390625 -38.94165039 C-84.64802638 -40.16513381 -90.80230288 -41.32302819 -96.96777344 -42.43383789 C-98.24265625 -42.66586914 -99.51753906 -42.89790039 -100.83105469 -43.13696289 C-119.62111927 -46.01194545 -143.65721505 -47.53735735 -161.96777344 -41.43383789 C-164.02922451 -41.36484689 -166.09278745 -41.34916062 -168.15527344 -41.37133789 C-169.78529297 -41.38487305 -169.78529297 -41.38487305 -171.44824219 -41.39868164 C-172.2796875 -41.4102832 -173.11113281 -41.42188477 -173.96777344 -41.43383789 C-173.96777344 -40.77383789 -173.96777344 -40.11383789 -173.96777344 -39.43383789 C-174.72703125 -39.24047852 -175.48628906 -39.04711914 -176.26855469 -38.84790039 C-177.26242188 -38.58750977 -178.25628906 -38.32711914 -179.28027344 -38.05883789 C-180.26640625 -37.80360352 -181.25253906 -37.54836914 -182.26855469 -37.28540039 C-185.14835504 -36.51470615 -185.14835504 -36.51470615 -187.96777344 -34.43383789 C-190.01646418 -33.98954351 -192.08231637 -33.62089594 -194.15527344 -33.30883789 C-195.24195313 -33.14125977 -196.32863281 -32.97368164 -197.44824219 -32.80102539 C-198.2796875 -32.67985352 -199.11113281 -32.55868164 -199.96777344 -32.43383789 C-199.96777344 -31.77383789 -199.96777344 -31.11383789 -199.96777344 -30.43383789 C-200.63421875 -30.21469727 -201.30066406 -29.99555664 -201.98730469 -29.76977539 C-208.11625857 -27.66107238 -213.66578967 -25.12682795 -219.29589844 -21.92211914 C-221.75221642 -20.55390693 -224.22974509 -19.36324887 -226.78027344 -18.18383789 C-236.75937747 -13.26613542 -247.96685146 -5.59095674 -255.03027344 3.06616211 C-258.34025136 6.95981918 -261.89721641 10.54106299 -265.53027344 14.12866211 C-269.90387205 18.45228732 -274.02799889 22.83843266 -277.96777344 27.56616211 C-278.85464844 28.43241211 -279.74152344 29.29866211 -280.65527344 30.19116211 C-283.06488011 32.48407783 -283.06488011 32.48407783 -284.65527344 35.37866211 C-285.30496094 36.46147461 -285.30496094 36.46147461 -285.96777344 37.56616211 C-286.62777344 37.56616211 -287.28777344 37.56616211 -287.96777344 37.56616211 C-288.21527344 38.30866211 -288.46277344 39.05116211 -288.71777344 39.81616211 C-290.05924644 42.76740273 -291.5768287 44.41431185 -293.96777344 46.56616211 C-292.47620925 42.24465723 -290.19580006 38.73646231 -287.53027344 35.06616211 C-287.08707764 34.45377686 -286.64388184 33.8413916 -286.18725586 33.21044922 C-253.31489653 -11.6364702 -206.39213457 -38.0952138 -151.80664062 -46.77758789 C-97.35614429 -54.01353425 -41.1503267 -35.84570101 0 0 Z " fill="#CBCBCB" transform="translate(323.9677734375,49.433837890625)"/>
<path d="M0 0 C0.33 0 0.66 0 1 0 C1.17299658 12.26353554 1.17299658 12.26353554 0.5 17.875 C-1.44115954 35.71653991 1.10359275 53.80358176 6 71 C6.33810444 72.33213148 6.67319942 73.66505046 7 75 C7.66 75 8.32 75 9 75 C9.20044922 75.5576001 9.40089844 76.1152002 9.60742188 76.68969727 C19.06652005 102.79069522 32.33648047 127.7637459 54.453125 145.44921875 C56 147 56 147 56 150 C56.66 150 57.32 150 58 150 C58.33 150.99 58.66 151.98 59 153 C61.01508358 153.73323796 61.01508358 153.73323796 63 154 C63 154.66 63 155.32 63 156 C64.32 156.33 65.64 156.66 67 157 C67 157.66 67 158.32 67 159 C68.051875 159.37125 68.051875 159.37125 69.125 159.75 C72.39514548 161.17180238 75.141122 162.87246288 78 165 C78 165.66 78 166.32 78 167 C73.09092056 165.63884616 69.3141835 163.42533732 65.25 160.4375 C64.63946777 159.99494873 64.02893555 159.55239746 63.39990234 159.09643555 C58.76600798 155.68515488 54.44725879 152.01247956 50.23828125 148.0859375 C48.14545634 146.13555617 45.99701459 144.28368633 43.8125 142.4375 C23.00372274 124.11088305 9.60879217 96.90256883 2.125 70.625 C1.93397705 69.96145508 1.7429541 69.29791016 1.54614258 68.61425781 C-1.57403271 56.94862284 -2.3306518 45.19484381 -2.26074219 33.18652344 C-2.25000821 31.00167107 -2.26071795 28.81764045 -2.2734375 26.6328125 C-2.28107925 17.57275901 -1.5559741 8.94596498 0 0 Z " fill="#C7BA4C" transform="translate(42,165)"/>
<path d="M0 0 C0.9128183 2.48121889 1.13921513 3.63465391 0.18310547 6.14379883 C-0.25114746 6.90716553 -0.68540039 7.67053223 -1.1328125 8.45703125 C-1.60710693 9.31498291 -2.08140137 10.17293457 -2.57006836 11.05688477 C-3.0831958 11.96623779 -3.59632324 12.87559082 -4.125 13.8125 C-8.81133816 22.41482947 -12.23830843 30.58815515 -15 40 C-15.68235288 41.93931871 -16.36969936 43.87688904 -17.0625 45.8125 C-18.73258102 50.83632097 -20.01288026 55.9049927 -21.1875 61.0625 C-21.35451416 61.78219971 -21.52152832 62.50189941 -21.69360352 63.2434082 C-24.12000297 74.32642169 -24.20348913 85.51415846 -24.1875 96.8125 C-24.18722809 97.53522095 -24.18695618 98.25794189 -24.18667603 99.00256348 C-24.15912017 114.99024899 -23.78846293 131.01884481 -19.5859375 146.5390625 C-19 149 -19 149 -19 153 C-18.34 153 -17.68 153 -17 153 C-14.43764478 160.04349737 -12.4996269 166.50559651 -12 174 C-11.01 174.33 -10.02 174.66 -9 175 C-7.88182526 177.33001858 -6.92220095 179.59539367 -6 182 C-5.48179688 183.20140625 -4.96359375 184.4028125 -4.4296875 185.640625 C-3.91664062 186.83171875 -3.40359375 188.0228125 -2.875 189.25 C-2.35679688 190.45140625 -1.83859375 191.6528125 -1.3046875 192.890625 C-0 196 -0 196 1 199 C1.66 199 2.32 199 3 199 C3.30292969 199.66386719 3.60585938 200.32773437 3.91796875 201.01171875 C6.41063068 206.26548313 8.70856683 210.00796914 13 214 C14.2260385 215.50659651 15.43213185 217.02950651 16.625 218.5625 C22.89441793 226.50931437 29.8117596 233.87831738 37 241 C37.96534045 241.96434679 38.93016764 242.9292076 39.89453125 243.89453125 C40.37470703 244.37470703 40.85488281 244.85488281 41.34960938 245.34960938 C43.56640625 247.56640625 45.78320313 249.78320312 48 252 C42.05674614 252 37.17293033 245.01559034 33 241 C32.39478516 240.42733398 31.78957031 239.85466797 31.16601562 239.26464844 C-0.30370848 209.42266868 -19.28566307 169.60987974 -26 127 C-26.10602539 126.33315186 -26.21205078 125.66630371 -26.32128906 124.97924805 C-27.40202748 116.9424666 -27.24390401 108.78214543 -27.25 100.6875 C-27.25067474 99.88320557 -27.25134949 99.07891113 -27.25204468 98.25024414 C-27.23562254 85.92166967 -26.67670662 74.0741599 -24 62 C-23.75056641 60.80528076 -23.75056641 60.80528076 -23.49609375 59.58642578 C-19.05902506 38.64592658 -11.23787457 18.25722392 0 0 Z " fill="#CACACA" transform="translate(29,96)"/>
<path d="M0 0 C3.52554795 1.30963427 6.57095469 2.86384578 9.73046875 4.8984375 C11.05981445 5.74148438 11.05981445 5.74148438 12.41601562 6.6015625 C14.24627075 7.77271941 16.07444284 8.94713879 17.90039062 10.125 C23.73324394 13.81422708 29.49395471 16.68865337 36 19 C36 19.66 36 20.32 36 21 C36.68320313 21.10828125 37.36640625 21.2165625 38.0703125 21.328125 C41.53137591 22.12186221 44.5974616 23.38259688 47.875 24.75 C81.66334962 38.41235284 127.27588255 45.90803915 163 34 C165.33299825 33.96045766 167.66708189 33.95598268 170 34 C167.11006529 35.92662314 165.70090985 36.422233 162.39453125 37.03515625 C161.49283203 37.20466797 160.59113281 37.37417969 159.66210938 37.54882812 C158.72173828 37.71833984 157.78136719 37.88785156 156.8125 38.0625 C155.89146484 38.23587891 154.97042969 38.40925781 154.02148438 38.58789062 C145.92768377 40.0871681 138.01523697 41.15050694 129.78515625 41.23828125 C128.6382708 41.25297203 128.6382708 41.25297203 127.46821594 41.26795959 C82.74440437 41.72225096 36.12575388 31.66025497 1 2 C0.67 1.34 0.34 0.68 0 0 Z " fill="#C3C3C3" transform="translate(77,349)"/>
<path d="M0 0 C3.80010707 2.05839133 7.3255418 4.17340308 10.75 6.8125 C41.64816405 30.25046094 81.95717288 38.08199421 120.03588867 33.21826172 C123.04766576 32.88357822 126.03542965 32.9056361 129.0625 32.9375 C130.75052734 32.95103516 130.75052734 32.95103516 132.47265625 32.96484375 C133.30667969 32.97644531 134.14070312 32.98804688 135 33 C135 33.33 135 33.66 135 34 C132.94921875 34.22786458 130.8984375 34.45572917 128.84765625 34.68359375 C126.98859771 34.81886614 126.98859771 34.81886614 126 36 C91.1385017 42.08554833 52.93444192 36.6051364 22 20 C22 19.01 22 18.02 22 17 C21.29875 16.7525 20.5975 16.505 19.875 16.25 C16.60485452 14.82819762 13.858878 13.12753712 11 11 C11 10.34 11 9.68 11 9 C9.68 8.67 8.36 8.34 7 8 C7 7.34 7 6.68 7 6 C5.35 5.67 3.7 5.34 2 5 C2 4.01 2 3.02 2 2 C1.34 2 0.68 2 0 2 C0 1.34 0 0.68 0 0 Z " fill="#A69B3C" transform="translate(98,313)"/>
<path d="M0 0 C0.99 0.33 1.98 0.66 3 1 C1.86268433 1.99978882 1.86268433 1.99978882 0.70239258 3.01977539 C-2.36831096 6.10869789 -3.78855358 9.63588628 -5.23828125 13.68359375 C-5.52794266 14.45956406 -5.81760406 15.23553436 -6.11604309 16.03501892 C-7.09617231 18.68355795 -8.05074623 21.34024419 -9 24 C-9.521315 25.45445526 -9.521315 25.45445526 -10.05316162 26.93829346 C-12.80277696 34.63307009 -15.49829715 42.34644536 -18.1875 50.0625 C-27.71089677 77.35579861 -27.71089677 77.35579861 -31.90625 88.51171875 C-32.19365555 89.28020645 -32.4810611 90.04869415 -32.7771759 90.84046936 C-34.06408817 94.27822957 -35.36555873 97.70878191 -36.69799805 101.12915039 C-39.20767199 107.79807702 -41.12739407 113.82408878 -40 121 C-38.68772566 124.03465702 -38.68772566 124.03465702 -37 126 C-41.54347826 124.56521739 -41.54347826 124.56521739 -43.3125 122.375 C-45.70915103 114.09566009 -42.58889338 106.95440973 -39.75 99.203125 C-39.29903339 97.94380392 -38.84917972 96.68408383 -38.40036011 95.42399597 C-37.19729297 92.05647965 -35.97869208 88.69479107 -34.75649261 85.33417892 C-33.49118181 81.84817778 -32.23879103 78.35753966 -30.98486328 74.86743164 C-28.96411146 69.2481603 -26.9344789 63.63216843 -24.89941406 58.01806641 C-22.66674244 51.85711655 -20.45717431 45.68827105 -18.26239014 39.51370239 C-16.80946836 35.42754863 -15.34844646 31.34432655 -13.88525391 27.26184082 C-13.2157777 25.39020343 -12.54907551 23.51757129 -11.88525391 21.6439209 C-10.97188974 19.07034886 -10.04628901 16.50151858 -9.1171875 13.93359375 C-8.7279158 12.82385445 -8.7279158 12.82385445 -8.33078003 11.69169617 C-6.60215856 6.9676546 -4.69142093 2.34571046 0 0 Z " fill="#13F8FD" transform="translate(127,137)"/>
<path d="M0 0 C0 5.54127955 -4.72901239 9.74384183 -8 14 C-8.62777344 14.83660156 -9.25554687 15.67320312 -9.90234375 16.53515625 C-20.68620489 30.35131102 -33.61345977 42.98738958 -48 53 C-48.58313965 53.4115332 -49.1662793 53.82306641 -49.76708984 54.24707031 C-64.90011665 64.88239274 -80.66041203 72.59001992 -98 79 C-99.21864746 79.46092041 -99.21864746 79.46092041 -100.46191406 79.93115234 C-101.25049805 80.21555176 -102.03908203 80.49995117 -102.8515625 80.79296875 C-103.55361816 81.04973389 -104.25567383 81.30649902 -104.97900391 81.57104492 C-107.31406626 82.06666036 -108.75544962 81.74199232 -111 81 C-110.34 81 -109.68 81 -109 81 C-109 80.34 -109 79.68 -109 79 C-107.9378125 78.68546875 -106.875625 78.3709375 -105.78125 78.046875 C-104.35405262 77.61496 -102.92697568 77.18264688 -101.5 76.75 C-100.80390625 76.54503906 -100.1078125 76.34007812 -99.390625 76.12890625 C-95.02624633 74.7953461 -91.05125303 73.1462482 -87.00488281 71.03955078 C-83.59675112 69.27240213 -80.10366052 67.68499918 -76.625 66.0625 C-74.41450596 65.02311746 -72.20492112 63.98182606 -69.99560547 62.93994141 C-68.27064337 62.12747455 -66.54370561 61.31920471 -64.81640625 60.51171875 C-63.94886719 60.09535156 -63.08132813 59.67898438 -62.1875 59.25 C-61.45917969 58.90453125 -60.73085938 58.5590625 -59.98046875 58.203125 C-57.60780173 56.76174148 -55.94368256 54.97713025 -54 53 C-52.39639716 51.8040928 -50.76920128 50.63944648 -49.125 49.5 C-33.49486989 38.28480624 -20.15718616 25.1270735 -8.75 9.625 C-6.39883909 6.43554217 -3.88169102 3.71702296 -1 1 C-0.67 0.67 -0.34 0.34 0 0 Z " fill="#C7C7C7" transform="translate(358,301)"/>
<path d="M0 0 C5.34292694 0.32381375 8.50086963 3.23553273 12 7 C16.78734245 12.90718864 17.02624515 20.23360025 16.38925171 27.54006958 C14.90643633 36.91092798 10.79597948 45.93064724 7.4375 54.75 C6.62732422 56.92885847 5.81936691 59.10854317 5.01367188 61.2890625 C2.00381275 69.40992088 -1.04297566 77.51612637 -4.15185547 85.59960938 C-4.79791253 87.3007581 -5.44391218 89.00192862 -6.08984375 90.703125 C-6.38734024 91.46187927 -6.68483673 92.22063354 -6.99134827 93.00238037 C-8.55571631 97.14559134 -9.42229783 100.49605231 -9 105 C-8.67 105.66 -8.34 106.32 -8 107 C-11.875 106.125 -11.875 106.125 -13 105 C-13.28690748 100.63768817 -12.67565014 97.38304429 -11.15161133 93.30859375 C-10.747314 92.21305176 -10.34301666 91.11750977 -9.9264679 89.98876953 C-9.4828038 88.81685059 -9.03913971 87.64493164 -8.58203125 86.4375 C-7.88757414 84.56707766 -7.19311703 82.69665531 -6.49866009 80.82623291 C-5.52397027 78.20890427 -4.54014945 75.59504286 -3.55664062 72.98101807 C-2.33274619 69.72282076 -1.11864874 66.46098213 0.09570312 63.19921875 C1.47085785 59.50575209 2.84749141 55.81287627 4.23173523 52.12280273 C5.49537128 48.75128888 6.74924582 45.37631209 8 42 C8.22973637 41.38648682 8.45947273 40.77297363 8.69617081 40.14086914 C9.39690923 38.26563934 10.08780773 36.38674206 10.77856445 34.5078125 C11.18951859 33.39809082 11.60047272 32.28836914 12.02388 31.14501953 C14.19975173 24.13444798 13.90506294 18.29507363 10.875 11.625 C8.49431333 7.35197264 5.96401029 4.81885176 2 2 C1.34 1.34 0.68 0.68 0 0 Z " fill="#FB1AFE" transform="translate(220,138)"/>
<path d="M0 0 C2.86724686 0.57344937 3.8614515 0.8614515 6 3 C6.77179183 10.8351713 4.6632668 16.86548081 1.90625 24.13671875 C1.48130249 25.29258987 1.05635498 26.448461 0.61853027 27.63935852 C-0.74074729 31.32725969 -2.11985799 35.00736293 -3.5 38.6875 C-4.3971794 41.10952785 -5.29302466 43.53205034 -6.1875 45.95507812 C-9.57719188 55.12353623 -12.96764334 64.29123026 -16.44140625 73.42822266 C-17.17988139 75.39608611 -17.9181733 77.36401833 -18.65625 79.33203125 C-18.99732788 80.21356369 -19.33840576 81.09509613 -19.68981934 82.00334167 C-21.72622749 87.4726276 -23.1744075 92.47677749 -21.25 98.25 C-19.76466367 100.32947086 -18.11683209 101.58877861 -16 103 C-19.69503332 102.78885524 -21.03336002 101.97099129 -23.875 99.5 C-26.32646405 96.22620029 -26.15760425 93.75821323 -25.58825684 89.72613525 C-24.36930289 84.07718549 -22.27245474 78.71159202 -20.265625 73.3046875 C-19.78485355 71.98618999 -19.30503408 70.66734501 -18.82611084 69.34817505 C-17.56755469 65.88858292 -16.29746091 62.4333469 -15.02441406 58.97906494 C-13.24522749 54.14505654 -11.48183061 49.30526217 -9.71673584 44.46609497 C-8.78028752 41.89884422 -7.83910094 39.33350653 -6.89508057 36.76901245 C-4.59552358 30.49922352 -2.34832506 24.21364949 -0.19824219 17.89111328 C0.21323059 16.68480255 0.62470337 15.47849182 1.04864502 14.23562622 C2.24581688 10.16395925 2.56454097 7.19373295 2 3 C1.34 2.01 0.68 1.02 0 0 Z " fill="#11F9FD" transform="translate(155,161)"/>
<path d="M0 0 C0.99 0.33 1.98 0.66 3 1 C2.113125 1.598125 1.22625 2.19625 0.3125 2.8125 C-6.82768916 8.77735341 -9.29826563 20.21361457 -12.29296875 28.71875 C-12.68086578 29.80792725 -13.06876282 30.89710449 -13.46841431 32.01928711 C-14.28993394 34.32702857 -15.10947725 36.63547441 -15.92715454 38.94458008 C-17.1980502 42.52976199 -18.47701702 46.11196528 -19.75854492 49.69335938 C-24.68396862 63.45801976 -24.68396862 63.45801976 -29.53599548 77.24865723 C-30.22071591 79.20643223 -30.91278771 81.16139293 -31.60864258 83.11523438 C-32.38152226 85.28826294 -33.14042972 87.46634051 -33.8815918 89.65039062 C-35.95818005 95.42820088 -37.86897096 98.54515591 -43 102 C-43.66 101.67 -44.32 101.34 -45 101 C-44.25234375 100.20803223 -43.5046875 99.41606445 -42.734375 98.60009766 C-39.42506354 94.61196427 -37.92508128 90.25064135 -36.25 85.3984375 C-35.91478836 84.46042297 -35.57957672 83.52240845 -35.23420715 82.55596924 C-34.51693502 80.54364337 -33.8054578 78.52924419 -33.09927368 76.51300049 C-31.99029735 73.34730269 -30.86575303 70.18752592 -29.73706055 67.02880859 C-26.49848406 57.9516662 -23.30108342 48.86011693 -20.10891724 39.76657104 C-18.95292805 36.4808831 -17.7881978 33.19833545 -16.62182617 29.9163208 C-15.83327927 27.68382915 -15.05977462 25.44652412 -14.28710938 23.20849609 C-7.78632883 4.67691179 -7.78632883 4.67691179 0 0 Z " fill="#FB1BFE" transform="translate(148,161)"/>
<path d="M0 0 C0.5775 0.226875 1.155 0.45375 1.75 0.6875 C0.863125 1.203125 -0.02375 1.71875 -0.9375 2.25 C-8.22942644 7.18716282 -10.74768181 14.9040217 -13.5078125 22.875 C-13.89288467 23.95880951 -14.27795685 25.04261902 -14.67469788 26.15927124 C-15.49456013 28.47152232 -16.30935489 30.78557547 -17.11947632 33.10125732 C-18.38217112 36.70798339 -19.6604192 40.3088604 -20.94262695 43.90869141 C-24.59741424 54.19064359 -28.20658997 64.48457484 -31.66015625 74.8359375 C-32.37105852 76.93873485 -33.0835313 79.04099263 -33.79656982 81.14306641 C-34.41721459 83.00175001 -35.00916715 84.86993819 -35.60009766 86.73828125 C-37.90511431 93.56471503 -40.61256539 99.18155083 -47.25 102.6875 C-48.24 102.3575 -49.23 102.0275 -50.25 101.6875 C-49.32759521 101.18323486 -48.40519043 100.67896973 -47.45483398 100.15942383 C-43.67769647 97.61828943 -42.40872371 94.32936772 -40.97265625 90.13671875 C-40.54678978 88.9715699 -40.54678978 88.9715699 -40.11231995 87.78288269 C-39.1364569 85.09171673 -38.19279089 82.39041997 -37.25 79.6875 C-36.50460542 77.590351 -35.75830891 75.4935224 -35.01123047 73.39697266 C-32.11863135 65.24373101 -29.2780571 57.07250266 -26.43579102 48.90161133 C-8.97411561 -1.24640495 -8.97411561 -1.24640495 0 0 Z " fill="#FB18FE" transform="translate(197.25,161.3125)"/>
<path d="M0 0 C2.86724686 0.57344937 3.8614515 0.8614515 6 3 C6.8923787 11.24187997 4.32403277 17.78229187 1.44140625 25.42578125 C0.97165151 26.70322339 0.5032451 27.98116208 0.03611755 29.25956726 C-1.18881473 32.60161946 -2.43058148 35.93715256 -3.67651367 39.27142334 C-5.18958947 43.32971399 -6.68344251 47.39510987 -8.17925358 51.45978832 C-9.34251612 54.62010157 -10.50981735 57.778702 -11.68492126 60.93464661 C-12.10528152 62.06649887 -12.52564178 63.19835114 -12.95874023 64.36450195 C-13.32958237 65.35883743 -13.7004245 66.35317291 -14.08250427 67.37763977 C-16.64299157 74.69595184 -17.69892892 83.196576 -14.375 90.4375 C-12.21127803 94.16563965 -9.46338856 96.48117195 -6 99 C-7.485 99.495 -7.485 99.495 -9 100 C-14.65682877 96.43373838 -18.10405394 91.41769353 -20 85 C-20.78180665 77.73554579 -19.37429423 71.73596136 -16.9375 64.9375 C-16.60041016 63.95668457 -16.26332031 62.97586914 -15.91601562 61.96533203 C-13.41815714 54.78345333 -10.77085206 47.65712517 -8.12890625 40.52734375 C-7.79068344 39.61204391 -7.45246063 38.69674408 -7.10398865 37.75370789 C-5.39378886 33.12691655 -3.67268449 28.50483048 -1.92944336 23.89038086 C-1.28599015 22.16401355 -0.64282969 20.43753708 0 18.7109375 C0.30276352 17.92118027 0.60552704 17.13142303 0.91746521 16.31773376 C2.48219005 12.08184087 3.49565558 8.58911672 3 4 C1.62073227 1.65738392 1.62073227 1.65738392 0 0 Z " fill="#12F8FD" transform="translate(201,161)"/>
<path d="M0 0 C0.33 0 0.66 0 1 0 C1.17299658 12.26353554 1.17299658 12.26353554 0.5 17.875 C-1.68440468 37.95224889 1.59208928 58.68517717 8.26171875 77.66796875 C9.11261822 80.35573055 9.70212043 83.06043774 10.3125 85.8125 C11.68239731 91.54986563 14.0008139 96.42486664 16.79296875 101.6015625 C18 104 18 104 18 106 C18.66 106 19.32 106 20 106 C20.33 107.32 20.66 108.64 21 110 C21.66 110 22.32 110 23 110 C26 115.75 26 115.75 26 118 C26.66 118 27.32 118 28 118 C28 119.65 28 121.3 28 123 C14.08760037 110.77789192 7.07431087 87.9101783 2.125 70.625 C1.93373535 69.96105225 1.7424707 69.29710449 1.54541016 68.61303711 C-1.572528 56.94696423 -2.33065181 45.19484624 -2.26074219 33.18652344 C-2.25000821 31.00167107 -2.26071795 28.81764045 -2.2734375 26.6328125 C-2.28107925 17.57275901 -1.5559741 8.94596498 0 0 Z " fill="#D1C55A" transform="translate(42,165)"/>
<path d="M0 0 C1.08982422 3.26947266 0.93087632 4.05370374 0.0390625 7.24609375 C-0.29738281 8.50389648 -0.29738281 8.50389648 -0.640625 9.78710938 C-1.12060495 11.51937743 -1.6023032 13.25117053 -2.0859375 14.98242188 C-8.04293299 37.30423168 -6.93087773 64.43590239 -0.48828125 86.51171875 C0.01833092 89.09341436 -0.14252659 90.54267686 -1 93 C-11.07910837 69.00212293 -9.47424406 43.24584396 -7 18 C-6.34 18 -5.68 18 -5 18 C-4.87753906 17.31550781 -4.75507812 16.63101563 -4.62890625 15.92578125 C-3.91575403 12.60807311 -2.95146135 9.42563463 -1.9375 6.1875 C-1.57527344 5.02605469 -1.21304688 3.86460937 -0.83984375 2.66796875 C-0.56269531 1.78753906 -0.28554688 0.90710938 0 0 Z " fill="#9F9844" transform="translate(50,147)"/>
<path d="M0 0 C3.45669582 -0.31424507 5.39901677 -0.37956836 8.375 1.5 C10.24280294 4.37354299 10.62441714 6.60999653 10.46484375 10.03125 C9.68039603 13.3536168 7.60264542 14.95506431 5 17 C1.78548731 18.60725635 -1.43612536 18.05748185 -5 18 C-5.55749749 12.4250251 -3.86536931 8.64315318 -1 4 C-0.34 3.34 0.32 2.68 1 2 C0.67 1.34 0.34 0.68 0 0 Z " fill="#92ADF1" transform="translate(267,195)"/>
<path d="M0 0 C3.4987707 5.24815606 3.18434734 11.08872556 3.2734375 17.23828125 C3.28601089 18.02789749 3.29858429 18.81751373 3.3115387 19.63105774 C3.68071319 48.43812254 -0.25504568 74.44928508 -12 101 C-13.24915899 97.25252303 -12.51264193 96.5512024 -11 93 C-10.33932853 90.56550892 -9.71409975 88.13888608 -9.125 85.6875 C-8.77635754 84.25773544 -8.42738987 82.82805014 -8.078125 81.3984375 C-7.90087891 80.66979492 -7.72363281 79.94115234 -7.54101562 79.19042969 C-7.01797429 77.07277314 -6.4742751 74.96173088 -5.921875 72.8515625 C-4.02582998 65.56440609 -2.44457846 58.35025929 -1.4921875 50.8671875 C-1 48 -1 48 0.01635742 45.19360352 C1.01778097 41.94227033 1.24432988 39.42297948 1.23046875 36.03515625 C1.22917969 34.91149658 1.22789062 33.78783691 1.2265625 32.63012695 C1.21367187 31.45281006 1.20078125 30.27549316 1.1875 29.0625 C1.18105469 27.86004639 1.17460937 26.65759277 1.16796875 25.41870117 C1.09458913 16.91411775 0.79438558 8.46871768 0 0 Z " fill="#9EA2A9" transform="translate(367,167)"/>
<path d="M0 0 C17.01418901 25.52128351 13.48610168 73.29593229 8 102 C7.67 102 7.34 102 7 102 C7.10828125 100.03160156 7.10828125 100.03160156 7.21875 98.0234375 C9.87939943 51.85238712 9.87939943 51.85238712 0.59985352 6.92944336 C-0.1352512 4.56496124 -0.23796403 2.45896162 0 0 Z " fill="#CDCDCD" transform="translate(379,132)"/>
<path d="M0 0 C0.99 0.33 1.98 0.66 3 1 C2.34773438 1.38929688 1.69546875 1.77859375 1.0234375 2.1796875 C-11.18981019 9.99760712 -14.16653472 20.7874466 -18.34033203 33.96484375 C-21.77619937 44.56491413 -26.60453296 59.29926001 -37 65 C-39.25 64.6875 -39.25 64.6875 -41 64 C-40.13375 63.525625 -39.2675 63.05125 -38.375 62.5625 C-28.67186472 55.93430196 -25.72359109 42.94121556 -22.10205078 32.38183594 C-14.86874295 11.39061913 -14.86874295 11.39061913 -6 4 C-5.40703125 3.50242188 -4.8140625 3.00484375 -4.203125 2.4921875 C-2.625 1.3125 -2.625 1.3125 0 0 Z " fill="#16F9FD" transform="translate(254,180)"/>
<path d="M0 0 C1.17688633 3.70560156 0.52059168 5.2257246 -1.11328125 8.72265625 C-2.88637072 13.27644992 -3.60876232 18.1392259 -4.56884766 22.91699219 C-5.52255566 27.52460073 -6.5911532 32.10837602 -7.64233398 36.69458008 C-8.39229771 40.02256746 -9.0368786 43.27424799 -9.4921875 46.66015625 C-10 50 -10 50 -11.00585938 52.72094727 C-12.13835707 56.45635409 -12.34940866 59.93780165 -12.4140625 63.8046875 C-12.43342865 64.5286673 -12.4527948 65.25264709 -12.4727478 65.99856567 C-12.53209886 68.29059398 -12.57874878 70.58267374 -12.625 72.875 C-12.66322087 74.43752081 -12.70227494 76.00002148 -12.7421875 77.5625 C-12.83776308 81.37483465 -12.92195606 85.1872678 -13 89 C-13.33 89 -13.66 89 -14 89 C-14.85034712 46.94706416 -14.85034712 46.94706416 -10 29 C-9.80212891 28.26217285 -9.60425781 27.5243457 -9.40039062 26.76416016 C-6.87481486 17.6324465 -3.53441635 8.78340064 0 0 Z " fill="#9B9EA6" transform="translate(37,125)"/>
<path d="M0 0 C-3.47457729 1.99163115 -6.90614126 2.75414191 -10.8125 3.5625 C-11.99457031 3.81128906 -13.17664063 4.06007813 -14.39453125 4.31640625 C-23.39459897 6.02281129 -32.18892751 6.23948799 -41.3125 6.25 C-42.45176437 6.25250763 -42.45176437 6.25250763 -43.61404419 6.25506592 C-72.11174913 6.25883391 -72.11174913 6.25883391 -80 1 C-77.3122562 1.14209669 -74.62486698 1.2885723 -71.9375 1.4375 C-71.18533203 1.47681641 -70.43316406 1.51613281 -69.65820312 1.55664062 C-68.54155273 1.61948242 -68.54155273 1.61948242 -67.40234375 1.68359375 C-66.72679443 1.72025146 -66.05124512 1.75690918 -65.35522461 1.79467773 C-63.45668156 1.96018771 -61.56658757 2.22103629 -59.68310547 2.51147461 C-55.96482299 3.00466586 -52.41718159 3.12940302 -48.66796875 3.1328125 C-47.99131668 3.13376923 -47.31466461 3.13472595 -46.61750793 3.13571167 C-45.19479275 3.13638769 -43.77207437 3.13457407 -42.34936523 3.13037109 C-40.20354051 3.12503985 -38.05792748 3.13032287 -35.91210938 3.13671875 C-24.90965673 3.22490018 -24.90965673 3.22490018 -14 2 C-13.67 1.67 -13.34 1.34 -13 1 C-8.62512908 0.34376936 -4.43069564 -0.13845924 0 0 Z " fill="#CCBE4D" transform="translate(238,346)"/>
<path d="M0 0 C0.70344543 -0.00671722 1.40689087 -0.01343445 2.13165283 -0.02035522 C12.49217515 -0.07800615 21.44823129 1.51745741 31.3125 4.625 C27.61378046 5.67608029 25.1821825 5.38012654 21.375 4.6875 C0.89616186 1.60441066 -19.28707978 3.26020034 -39.31591797 8.07373047 C-42.08914798 8.71836227 -44.87104058 9.2103943 -47.6875 9.625 C-35.76162747 -0.22389473 -14.87665783 0.02699751 0 0 Z " fill="#A09842" transform="translate(196.6875,40.375)"/>
<path d="M0 0 C1.15938404 3.41926749 0.8277643 5.56387929 -0.15234375 9.0078125 C-0.42997559 9.98548584 -0.70760742 10.96315918 -0.99365234 11.97045898 C-1.30512207 13.01145752 -1.6165918 14.05245605 -1.9375 15.125 C-2.2567041 16.20015869 -2.5759082 17.27531738 -2.90478516 18.38305664 C-6.89282658 31.41343484 -12.53261234 43.37769936 -18.8125 55.4375 C-19.37203369 56.51245728 -19.37203369 56.51245728 -19.94287109 57.60913086 C-21.67440426 60.84485985 -23.32592138 63.49574933 -26 66 C-25.21302675 62.58978257 -24.12880057 59.31114834 -23 56 C-22.34 56 -21.68 56 -21 56 C-20.9175 55.319375 -20.835 54.63875 -20.75 53.9375 C-19.9814312 50.9272722 -18.70439872 48.7308794 -17.109375 46.08984375 C-15.35531314 42.78553707 -14.22354179 39.28334891 -13.02734375 35.74609375 C-12 33 -12 33 -10.53515625 30.07421875 C-6.30608881 21.60532288 -3.66919742 12.43361886 -1.578125 3.23046875 C-1 1 -1 1 0 0 Z " fill="#C1C1C1" transform="translate(385,235)"/>
<path d="M0 0 C7.25475997 0.544107 12.61376162 4.18134835 17.375 9.5 C22.00517177 14.98377885 22.56415569 20.52190787 22.4375 27.51171875 C21.32659792 36.36917907 16.70763032 43.19912437 9.9296875 48.79296875 C7.94016475 50.03742731 6.29565538 50.57657912 4 51 C5.051875 49.9790625 5.051875 49.9790625 6.125 48.9375 C13.76691795 41.23045206 18.09632936 35.68159259 18.4375 24.5 C18.26505655 16.55192481 16.75961243 13.39038098 11.8125 7.3125 C8.18548463 4.33028737 4.34866808 2.69588581 0 1 C0 0.67 0 0.34 0 0 Z " fill="#F812FE" transform="translate(279,178)"/>
<path d="M0 0 C2.5723216 0.34761103 4.60671393 0.7771379 6.875 2.0625 C8.37628226 4.64804166 8.19576896 6.67295703 7.69140625 9.56640625 C4.89015206 19.42618794 -0.80989911 26.89898 -8 34 C-8.55300781 34.57492188 -9.10601562 35.14984375 -9.67578125 35.7421875 C-14.76937282 40.62091292 -21.3604535 43.76945954 -28 46 C-30.39453125 45.66015625 -30.39453125 45.66015625 -32 45 C-31.26136719 44.731875 -30.52273438 44.46375 -29.76171875 44.1875 C-14.69815633 38.36879228 -5.1825163 29.79790996 2 15.3125 C4.01693908 10.6175515 4.47781701 7.06486025 4 2 C2.68 1.34 1.36 0.68 0 0 Z " fill="#F620FD" transform="translate(316,216)"/>
<path d="M0 0 C0.33 0 0.66 0 1 0 C1.20790689 4.59474224 0.53775559 8.19533217 -0.875 12.5625 C-1.22304688 13.65691406 -1.57109375 14.75132812 -1.9296875 15.87890625 C-2.87213169 18.62712856 -3.89028848 21.3156978 -5 24 C-5.66 24 -6.32 24 -7 24 C-7.103125 25.010625 -7.20625 26.02125 -7.3125 27.0625 C-8.01860244 31.10654125 -9.31313074 34.27483038 -11 38 C-11.37308631 39.32276056 -11.73046415 40.65232077 -12 42 C-12.66 42 -13.32 42 -14 42 C-13.4256299 35.57749801 -11.89460531 29.90314451 -9.8125 23.8125 C-9.50368896 22.89573486 -9.19487793 21.97896973 -8.87670898 21.03442383 C-6.38106838 13.77722091 -3.47036365 6.85174361 0 0 Z " fill="#BDB24E" transform="translate(57,123)"/>
<path d="M0 0 C0.69585205 0.0707373 1.3917041 0.14147461 2.10864258 0.21435547 C10.3161919 0.981265 18.44769694 1.15065585 26.6875 1.125 C27.94111328 1.12886719 29.19472656 1.13273437 30.48632812 1.13671875 C36.4058453 1.13049096 42.18261073 0.98696623 48.0534668 0.22265625 C51.05895794 -0.12113002 54.04090259 -0.09430629 57.0625 -0.0625 C58.75052734 -0.04896484 58.75052734 -0.04896484 60.47265625 -0.03515625 C61.72369141 -0.01775391 61.72369141 -0.01775391 63 0 C63 0.33 63 0.66 63 1 C60.94921875 1.22786458 58.8984375 1.45572917 56.84765625 1.68359375 C54.98859771 1.81886614 54.98859771 1.81886614 54 3 C46.19539042 4.40006355 38.13399972 4.18622168 30.23291016 4.18530273 C28.13553544 4.18748902 26.03868853 4.20571273 23.94140625 4.22460938 C15.77321909 4.25744377 8.00525345 3.67607027 0 2 C0 1.34 0 0.68 0 0 Z " fill="#9F9847" transform="translate(170,346)"/>
<path d="M0 0 C1.65794858 2.48692287 2.60934819 4.35889792 3.62890625 7.10546875 C9.13478569 21.59401924 15.42287455 34.72163404 25 47 C25 47.66 25 48.32 25 49 C24.34 49 23.68 49 23 49 C23 48.34 23 47.68 23 47 C22.34 47 21.68 47 21 47 C20.67 45.68 20.34 44.36 20 43 C19.34 43 18.68 43 18 43 C15.95830515 40.09451118 15 38.59857954 15 35 C14.34 35 13.68 35 13 35 C12.67 33.68 12.34 32.36 12 31 C11.34 31 10.68 31 10 31 C8.69641615 28.3594848 7.40718661 25.71338755 6.125 23.0625 C5.57779297 21.95938477 5.57779297 21.95938477 5.01953125 20.83398438 C1.84852504 14.23252599 -0.47886631 7.42242787 0 0 Z " fill="#9F9849" transform="translate(50,240)"/>
<path d="M0 0 C0.66 0.33 1.32 0.66 2 1 C1.01 1.33 0.02 1.66 -1 2 C-1 2.66 -1 3.32 -1 4 C-1.99 4 -2.98 4 -4 4 C-4 4.99 -4 5.98 -4 7 C-14.63747549 11.72027439 -23.46172304 12.62859862 -35 12 C-32.17042779 10.48707144 -29.46145875 9.47111861 -26.3671875 8.6328125 C-25.47773438 8.38660156 -24.58828125 8.14039063 -23.671875 7.88671875 C-21.83109109 7.38538794 -19.98995374 6.8853528 -18.1484375 6.38671875 C-12.57067591 4.84001187 -7.30235187 2.99809796 -2.00048828 0.66748047 C-1.34032715 0.44721191 -0.68016602 0.22694336 0 0 Z " fill="#B3AA54" transform="translate(260,334)"/>
<path d="M0 0 C-2.88993471 1.92662314 -4.29909015 2.422233 -7.60546875 3.03515625 C-8.50716797 3.20466797 -9.40886719 3.37417969 -10.33789062 3.54882812 C-11.74844727 3.8030957 -11.74844727 3.8030957 -13.1875 4.0625 C-14.10853516 4.23587891 -15.02957031 4.40925781 -15.97851562 4.58789062 C-24.41279949 6.15023845 -32.51983269 7.15367814 -41.09375 7.09765625 C-41.92588013 7.0962413 -42.75801025 7.09482635 -43.61535645 7.09336853 C-46.2436093 7.08782167 -48.87177338 7.07527945 -51.5 7.0625 C-53.29426959 7.05747812 -55.08854054 7.05291642 -56.8828125 7.04882812 C-61.25524195 7.03786972 -65.62760598 7.02064248 -70 7 C-70 6.67 -70 6.34 -70 6 C-68.52575562 5.970271 -68.52575562 5.970271 -67.02172852 5.93994141 C-63.33691991 5.86323566 -59.65247321 5.77462488 -55.96801758 5.68261719 C-54.38052574 5.64459343 -52.79295552 5.60969679 -51.20532227 5.578125 C-39.97178457 5.43463643 -39.97178457 5.43463643 -28.9440918 3.49023438 C-25.3957713 2.59546763 -21.75874711 2.31060796 -18.125 1.9375 C-11.93654605 1.2897466 -6.23129454 -0.1175716 0 0 Z " fill="#CDCDCD" transform="translate(247,383)"/>
<path d="M0 0 C0.66 0.33 1.32 0.66 2 1 C1.18378174 1.80836304 1.18378174 1.80836304 0.35107422 2.63305664 C-2.14365216 5.10683008 -4.63434538 7.58462733 -7.125 10.0625 C-7.9809375 10.91005859 -8.836875 11.75761719 -9.71875 12.63085938 C-14.37102079 17.26523682 -18.7823428 21.96852227 -23 27 C-23.886875 27.86625 -24.77375 28.7325 -25.6875 29.625 C-28.09710668 31.91791572 -28.09710668 31.91791572 -29.6875 34.8125 C-30.120625 35.534375 -30.55375 36.25625 -31 37 C-31.66 37 -32.32 37 -33 37 C-33.2475 37.7425 -33.495 38.485 -33.75 39.25 C-35.09147301 42.20124062 -36.60905526 43.84814974 -39 46 C-37.47699675 41.51560154 -35.01818895 37.91581574 -32.25 34.125 C-31.57348389 33.19192017 -31.57348389 33.19192017 -30.88330078 32.23999023 C-26.20619351 25.83898687 -21.48844497 20.31001182 -15.43359375 15.17578125 C-10.05580232 10.36770769 -5.06439265 5.13387365 0 0 Z " fill="#BFC0C0" transform="translate(69,50)"/>
<path d="M0 0 C0.66 0 1.32 0 2 0 C2.37511719 1.03898438 2.75023437 2.07796875 3.13671875 3.1484375 C5.77723898 10.37302568 8.4587811 17.39207813 12.1171875 24.1796875 C13 26 13 26 13 28 C13.66 28 14.32 28 15 28 C15.33 29.32 15.66 30.64 16 32 C16.66 32 17.32 32 18 32 C21 37.75 21 37.75 21 40 C21.66 40 22.32 40 23 40 C23 41.65 23 43.3 23 45 C18.92127695 41.41682274 16.43822091 37.14697721 13.75 32.5 C13.27199951 31.6757251 12.79399902 30.8514502 12.30151367 30.00219727 C0 8.18740344 0 8.18740344 0 0 Z " fill="#D4C85E" transform="translate(47,243)"/>
<path d="M0 0 C0.33 0 0.66 0 1 0 C1.18451025 13.6332574 1.18451025 13.6332574 0 20 C-0.66 20 -1.32 20 -2 20 C-2.1546875 21.7325 -2.1546875 21.7325 -2.3125 23.5 C-3.33698272 31.49938563 -6.92264132 39.09674917 -11 46 C-11.99 46.495 -11.99 46.495 -13 47 C-11.51581428 42.52967997 -10.02487428 38.06209535 -8.5 33.60546875 C-4.74037307 22.56918425 -1.12171069 11.66579114 0 0 Z " fill="#9D974A" transform="translate(347,216)"/>
<path d="M0 0 C11.84379024 -0.61260984 22.75638248 2.02849025 33 8 C33 8.66 33 9.32 33 10 C34.32 10.66 35.64 11.32 37 12 C32.86861053 12 29.57208683 10.30174409 25.8125 8.75 C17.35605162 5.34381084 8.89363496 2.95078369 0 1 C0 0.67 0 0.34 0 0 Z " fill="#A8A151" transform="translate(228,46)"/>
<path d="M0 0 C3.80010707 2.05839133 7.3255418 4.17340308 10.75 6.8125 C18.95457074 13.0726349 27.48595215 18.00667624 37 22 C33.21180727 23.43410153 30.93478721 22.51009497 27.25 21.0625 C26.26515625 20.68222656 25.2803125 20.30195313 24.265625 19.91015625 C23.51796875 19.60980469 22.7703125 19.30945313 22 19 C22 18.34 22 17.68 22 17 C21.29875 16.7525 20.5975 16.505 19.875 16.25 C16.60485452 14.82819762 13.858878 13.12753712 11 11 C11 10.34 11 9.68 11 9 C9.68 8.67 8.36 8.34 7 8 C7 7.34 7 6.68 7 6 C5.35 5.67 3.7 5.34 2 5 C2 4.01 2 3.02 2 2 C1.34 2 0.68 2 0 2 C0 1.34 0 0.68 0 0 Z " fill="#A09843" transform="translate(98,313)"/>
<path d="M0 0 C1.71874472 0.01006063 3.43749522 0.01918097 5.15625 0.02734375 C9.31264602 0.04908838 13.46875679 0.08344396 17.625 0.125 C17.625 0.455 17.625 0.785 17.625 1.125 C16.47668701 1.16258423 16.47668701 1.16258423 15.30517578 1.20092773 C11.78666069 1.31803454 8.26833945 1.44023405 4.75 1.5625 C3.54601562 1.60181641 2.34203125 1.64113281 1.1015625 1.68164062 C-10.2646202 1.07918285 -10.2646202 1.07918285 -20.375 4.125 C-23.23767567 4.19825168 -26.075719 4.21738205 -28.9375 4.1875 C-29.74380859 4.18298828 -30.55011719 4.17847656 -31.38085938 4.17382812 C-33.37893756 4.16200518 -35.37697783 4.14406914 -37.375 4.125 C-26.88508687 -1.8886276 -11.70704858 -0.12066775 0 0 Z " fill="#989EAA" transform="translate(197.375,21.875)"/>
<path d="M0 0 C0.33 0 0.66 0 1 0 C2.76401462 12.34810233 3.09769469 24.66964094 3.125 37.125 C3.12959229 38.31134033 3.13418457 39.49768066 3.13891602 40.7199707 C3.13690186 41.8462085 3.1348877 42.97244629 3.1328125 44.1328125 C3.13168457 45.14230957 3.13055664 46.15180664 3.12939453 47.19189453 C3.00476929 49.89649739 2.60717587 52.3656888 2 55 C1.67 55 1.34 55 1 55 C1.01047363 54.38294189 1.02094727 53.76588379 1.03173828 53.13012695 C1.20826995 41.03994234 1.13517214 29.14211629 -0.37646484 17.13012695 C-1.06845921 11.26723148 -0.79588218 5.846762 0 0 Z " fill="#AEB0B2" transform="translate(366,159)"/>
<path d="M0 0 C3.5604162 1.32431805 6.66168788 2.90635023 9.87109375 4.93359375 C11.22750977 5.7834082 11.22750977 5.7834082 12.61132812 6.65039062 C13.54396484 7.24013672 14.47660156 7.82988281 15.4375 8.4375 C23.52077 13.57383343 23.52077 13.57383343 32 18 C32 18.66 32 19.32 32 20 C32.99 20.33 33.98 20.66 35 21 C34.01 21.495 34.01 21.495 33 22 C31.34277344 21.35424805 31.34277344 21.35424805 29.359375 20.26171875 C28.62452881 19.85824219 27.88968262 19.45476562 27.13256836 19.0390625 C26.3463208 18.59304688 25.56007324 18.14703125 24.75 17.6875 C23.94892822 17.23761719 23.14785645 16.78773438 22.32250977 16.32421875 C2.49243704 4.98487407 2.49243704 4.98487407 0 0 Z " fill="#CBCBCB" transform="translate(77,349)"/>
<path d="M0 0 C2.97 0.495 2.97 0.495 6 1 C6 1.66 6 2.32 6 3 C6.66 3 7.32 3 8 3 C8.33 3.99 8.66 4.98 9 6 C11.01508358 6.73323796 11.01508358 6.73323796 13 7 C13 7.66 13 8.32 13 9 C14.32 9.33 15.64 9.66 17 10 C17 10.66 17 11.32 17 12 C18.051875 12.37125 18.051875 12.37125 19.125 12.75 C22.39514548 14.17180238 25.141122 15.87246288 28 18 C28 18.66 28 19.32 28 20 C23.02566368 18.63167952 19.231154 16.34549319 15.125 13.3125 C14.5151123 12.86914307 13.90522461 12.42578613 13.27685547 11.96899414 C8.65492402 8.57217513 4.03247357 5.09508962 0 1 C0 0.67 0 0.34 0 0 Z " fill="#CBBE50" transform="translate(92,312)"/>
<path d="M0 0 C0 0.33 0 0.66 0 1 C-7.41430591 2.83717315 -14.37685526 3.23576736 -22 3 C-22 3.66 -22 4.32 -22 5 C-22.75925781 5.19335938 -23.51851562 5.38671875 -24.30078125 5.5859375 C-25.29464844 5.84632812 -26.28851563 6.10671875 -27.3125 6.375 C-28.79169922 6.75785156 -28.79169922 6.75785156 -30.30078125 7.1484375 C-33.1805816 7.91913174 -33.1805816 7.91913174 -36 10 C-38.1875 9.625 -38.1875 9.625 -40 9 C-39.195625 8.71125 -38.39125 8.4225 -37.5625 8.125 C-34.8673532 7.26737432 -34.8673532 7.26737432 -34 5 C-31.03553697 3.8225949 -27.90476576 3.14414651 -24.8125 2.375 C-23.91370117 2.14917236 -23.01490234 1.92334473 -22.08886719 1.69067383 C-14.59001314 -0.08118757 -7.71045753 -0.57445462 0 0 Z " fill="#C4C4C4" transform="translate(172,5)"/>
<path d="M0 0 C1.21042223 3.5015421 0.77550862 5.69983894 -0.2578125 9.21875 C-0.55163818 10.22873047 -0.84546387 11.23871094 -1.14819336 12.27929688 C-1.63171265 13.87354492 -1.63171265 13.87354492 -2.125 15.5 C-2.4454126 16.57830078 -2.7658252 17.65660156 -3.09594727 18.76757812 C-5.30191307 26.05656919 -7.72301911 33.11380974 -11 40 C-12.3470468 35.95885959 -11.04129589 33.19435318 -9.75 29.3125 C-9.51619629 28.58643555 -9.28239258 27.86037109 -9.04150391 27.11230469 C-7.90687959 23.62127376 -6.72361593 20.16504356 -5.375 16.75 C-3.77168087 12.37731145 -2.70344051 7.97338155 -1.6484375 3.44140625 C-1 1 -1 1 0 0 Z " fill="#CCCCCC" transform="translate(385,235)"/>
<path d="M0 0 C0.33 0.66 0.66 1.32 1 2 C0.27490234 3.76489258 0.27490234 3.76489258 -0.9140625 5.89453125 C-1.34348145 6.67981201 -1.77290039 7.46509277 -2.21533203 8.27416992 C-2.68052246 9.11181885 -3.14571289 9.94946777 -3.625 10.8125 C-7.73370403 18.38195841 -11.21465271 25.83453451 -14 34 C-15.21802727 30.23964736 -14.50434116 28.47525644 -12.81640625 24.91015625 C-11.82122784 22.73796716 -11.82122784 22.73796716 -11.125 19.1875 C-9.35430971 11.66572473 -5.8771244 5.0375352 0 0 Z " fill="#ABACB0" transform="translate(49,106)"/>
<path d="M0 0 C0.66 0.33 1.32 0.66 2 1 C1.56171875 1.72445312 1.1234375 2.44890625 0.671875 3.1953125 C-0.3605036 4.92719997 -1.37492061 6.67011672 -2.359375 8.4296875 C-6.40989701 15.55223463 -11.26325101 22.56144489 -19 26 C-19.99 25.67 -20.98 25.34 -22 25 C-16.25 21 -16.25 21 -14 21 C-13.7525 20.443125 -13.505 19.88625 -13.25 19.3125 C-12 17 -12 17 -10.1875 14.8125 C-7.787928 11.727336 -6.04611019 8.54432974 -4.24609375 5.0859375 C-3.02629402 3.0440157 -1.75170707 1.5943073 0 0 Z " fill="#1CF5FD" transform="translate(304,217)"/>
<path d="M0 0 C0.66 0 1.32 0 2 0 C-0.17293056 11.65480939 -4.9709006 22.32118893 -10 33 C-12 29.25 -12 29.25 -12 27 C-11.01541425 25.98481977 -10.01337205 24.9864467 -9 24 C-4.60643805 16.53094468 -2.44550126 8.25857802 0 0 Z " fill="#C3B85E" transform="translate(345,236)"/>
<path d="M0 0 C5.16757802 -0.54395558 8.8107374 0.93004333 13.4609375 2.91796875 C15.78527709 3.908495 18.11950939 4.78100787 20.5 5.625 C24 7 24 7 26 9 C19.6215931 8.48065724 14.39950581 6.8635997 8.5 4.4375 C7.26636719 3.9434668 7.26636719 3.9434668 6.0078125 3.43945312 C4.00181087 2.63471991 2.00040655 1.81854242 0 1 C0 0.67 0 0.34 0 0 Z " fill="#C6B84A" transform="translate(132,338)"/>
<path d="M0 0 C0 7.69521254 -5.54498365 14.1279664 -10 20 C-10.66 20.66 -11.32 21.32 -12 22 C-12.66 21.67 -13.32 21.34 -14 21 C-12.18690997 17.22272911 -10.0926741 13.62730178 -8 10 C-7.34 10 -6.68 10 -6 10 C-5.62875 8.9171875 -5.62875 8.9171875 -5.25 7.8125 C-3.89016326 4.75286734 -2.17082246 2.5326262 0 0 Z " fill="#A4A7AE" transform="translate(44,77)"/>
<path d="M0 0 C0.99 0.33 1.98 0.66 3 1 C-20.33474464 10.4999158 -20.33474464 10.4999158 -25 9 C-24.34 9 -23.68 9 -23 9 C-23 8.34 -23 7.68 -23 7 C-16.04379468 4.57533283 -9.2085975 2.51148012 -2 1 C-1.34 0.67 -0.68 0.34 0 0 Z " fill="#CACACA" transform="translate(272,373)"/>
<path d="M0 0 C0.66 0.33 1.32 0.66 2 1 C0.948125 1.721875 -0.10375 2.44375 -1.1875 3.1875 C-3.56263536 4.87584923 -5.48452419 6.48452419 -7.5625 8.5625 C-10.209279 11.209279 -12.72296903 13.18717436 -16 15 C-18.18359375 14.6015625 -18.18359375 14.6015625 -20 14 C-6.20689655 3.44827586 -6.20689655 3.44827586 0 0 Z " fill="#9FA2A9" transform="translate(107,46)"/>
<path d="M0 0 C-2.5157371 1.46776498 -5.03698982 2.92422235 -7.5625 4.375 C-8.61920898 4.99375 -8.61920898 4.99375 -9.69726562 5.625 C-14.07650014 8.12741972 -18.09094621 9.8259556 -23 11 C-23 10.34 -23 9.68 -23 9 C-22.01 9 -21.02 9 -20 9 C-20 8.34 -20 7.68 -20 7 C-19.443125 6.75765625 -18.88625 6.5153125 -18.3125 6.265625 C-14.34166228 4.521676 -10.45234872 2.72922692 -6.625 0.6875 C-3 -1 -3 -1 0 0 Z " fill="#C5B852" transform="translate(279,329)"/>
<path d="M0 0 C0.33 0 0.66 0 1 0 C1.30164287 5.53011927 0.70269941 9.62053384 -1.19921875 14.8125 C-2.30488944 17.83286871 -3.14286906 20.90114198 -4 24 C-5.39302523 20.08957917 -4.78065233 16.61877425 -4.25 12.5625 C-4.09015625 11.26441406 -3.9303125 9.96632812 -3.765625 8.62890625 C-3.02301533 5.10908795 -2.11135212 2.8836625 0 0 Z " fill="#A6AAB0" transform="translate(385,227)"/>
<path d="M0 0 C2.19702465 0.37879735 3.83875922 0.90210381 5.75 2.0625 C7.78377316 5.2148484 7.74285142 8.43847871 7 12 C4.59906707 15.22410993 3.05749882 16.69450034 -0.8125 17.8125 C-1.534375 17.874375 -2.25625 17.93625 -3 18 C-1.7934375 17.1028125 -1.7934375 17.1028125 -0.5625 16.1875 C2.22327984 14.19052724 2.22327984 14.19052724 3 11 C3.06740865 9.43881572 3.08514456 7.8749748 3.0625 6.3125 C3.05347656 5.50425781 3.04445313 4.69601563 3.03515625 3.86328125 C3.02355469 3.24839844 3.01195312 2.63351563 3 2 C2.01 1.67 1.02 1.34 0 1 C0 0.67 0 0.34 0 0 Z " fill="#25F9FE" transform="translate(270,195)"/>
<path d="M0 0 C10.25336889 -1.01630308 19.32773311 2.02064386 29 5 C29 5.33 29 5.66 29 6 C19.22552003 4.87217539 9.58237688 3.23588794 0 1 C0 0.67 0 0.34 0 0 Z " fill="#BDB254" transform="translate(216,42)"/>
<path d="M0 0 C2.29705567 4.37315706 3.69810172 8.92901485 5.1875 13.625 C5.47302734 14.49640625 5.75855469 15.3678125 6.05273438 16.265625 C6.45008789 17.51472656 6.45008789 17.51472656 6.85546875 18.7890625 C7.09934326 19.54912598 7.34321777 20.30918945 7.59448242 21.09228516 C8 23 8 23 7 25 C6.34 23.02 5.68 21.04 5 19 C4.34 19 3.68 19 3 19 C0.36903961 12.51656189 -0.39325819 6.97669157 0 0 Z " fill="#AAABAD" transform="translate(29,234)"/>
<path d="M0 0 C4.17084229 1.49901781 7.69700358 3.57160297 11.4375 5.9375 C15.53995761 8.52878078 19.62615745 10.89554182 24 13 C21.71067457 13.79138739 20.45833132 14.16393048 18.140625 13.33496094 C17.51671875 12.97176758 16.8928125 12.60857422 16.25 12.234375 C15.5590625 11.83863281 14.868125 11.44289063 14.15625 11.03515625 C13.4446875 10.61105469 12.733125 10.18695313 12 9.75 C11.2884375 9.34136719 10.576875 8.93273437 9.84375 8.51171875 C2.62175242 4.32134329 2.62175242 4.32134329 0 2 C0 1.34 0 0.68 0 0 Z " fill="#999DA6" transform="translate(89,354)"/>
<path d="M0 0 C1.85334752 2.78002128 2.3476336 3.9902814 2.9375 7.125 C3.76956217 11.23833958 5.00745729 15.04309976 6.51171875 18.95703125 C7.07725835 21.32324894 6.76415606 22.71778895 6 25 C5.67 23.02 5.34 21.04 5 19 C4.01 18.67 3.02 18.34 2 18 C1.66317938 15.7505194 1.33066999 13.50039296 1 11.25 C0.814375 9.99703125 0.62875 8.7440625 0.4375 7.453125 C0 4 0 4 0 0 Z " fill="#C6B948" transform="translate(44,224)"/>
<path d="M0 0 C0.66 0.33 1.32 0.66 2 1 C2.37890625 2.9609375 2.37890625 2.9609375 2.5625 5.375 C2.78753088 8.19477465 3.09554568 10.28663703 4 13 C6.39068734 14.10636395 6.39068734 14.10636395 9 15 C9.99 15.66 10.98 16.32 12 17 C6.35939411 16.59709958 3.96528877 14.78085674 0 11 C-1.62651522 7.74696956 -1.11453156 4.60774398 -1 1 C-0.67 0.67 -0.34 0.34 0 0 Z " fill="#F522FD" transform="translate(252,229)"/>
<path d="M0 0 C5.29496054 0.3209067 8.57194883 3.20639835 12 7 C16 13.30409357 16 13.30409357 16 17 C15.01 17 14.02 17 13 17 C12.70867187 16.33613281 12.41734375 15.67226562 12.1171875 14.98828125 C9.44518139 9.23254482 7.17186562 5.67777111 2 2 C1.34 1.34 0.68 0.68 0 0 Z " fill="#F41BFD" transform="translate(220,138)"/>
<path d="M0 0 C-0.99 0.33 -1.98 0.66 -3 1 C-3 1.66 -3 2.32 -3 3 C-3.99 3 -4.98 3 -6 3 C-6 3.66 -6 4.32 -6 5 C-11.24385089 6.7479503 -15.47322267 7.19392201 -21 7 C-17.45941714 4.63961143 -13.90193747 3.30223114 -9.9375 1.8125 C-9.20466797 1.52697266 -8.47183594 1.24144531 -7.71679688 0.94726562 C-2.2396978 -1.1198489 -2.2396978 -1.1198489 0 0 Z " fill="#A09949" transform="translate(262,335)"/>
<path d="M0 0 C0.99 0.33 1.98 0.66 3 1 C-3.00525989 6.68512655 -8.76818396 11.90651922 -16 16 C-15.67 14.68 -15.34 13.36 -15 12 C-14.01 12 -13.02 12 -12 12 C-12 11.34 -12 10.68 -12 10 C-11.01 10 -10.02 10 -9 10 C-8.7525 9.4225 -8.505 8.845 -8.25 8.25 C-6.80606301 5.65091342 -5.26478013 3.92163162 -3 2 C-2.01 2 -1.02 2 0 2 C0 1.34 0 0.68 0 0 Z " fill="#C4B852" transform="translate(303,307)"/>
<path d="M0 0 C0.99 0.33 1.98 0.66 3 1 C2.38125 1.721875 1.7625 2.44375 1.125 3.1875 C-2.08768114 7.43957797 -3.3047933 10.66611731 -3 16 C-4.32 15.67 -5.64 15.34 -7 15 C-6.03739986 8.5347752 -4.58547143 4.70614174 0 0 Z " fill="#F61EFD" transform="translate(266,196)"/>
<path d="M0 0 C17.45080656 -0.57215759 17.45080656 -0.57215759 24 5 C15.75569133 4.52087184 7.99955473 3.02214499 0 1 C0 0.67 0 0.34 0 0 Z " fill="#CBCBCB" transform="translate(144,383)"/>
<path d="M0 0 C0.66 0 1.32 0 2 0 C0.41807245 4.50505453 -1.91697036 8.27229941 -4.5 12.25 C-4.90347656 12.88679688 -5.30695313 13.52359375 -5.72265625 14.1796875 C-8.74946036 18.87473018 -8.74946036 18.87473018 -11 20 C-10.38394021 15.99561138 -8.24558699 13.29820589 -6 10 C-5.67 9.01 -5.34 8.02 -5 7 C-4.34 7 -3.68 7 -3 7 C-3 6.01 -3 5.02 -3 4 C-2.34 4 -1.68 4 -1 4 C-0.67 2.68 -0.34 1.36 0 0 Z " fill="#C5BA59" transform="translate(332,269)"/>
<path d="M0 0 C0.33 0 0.66 0 1 0 C1.25114716 4.5817388 0.61436612 7.65751731 -1.3125 11.8125 C-1.74175781 12.76769531 -2.17101563 13.72289062 -2.61328125 14.70703125 C-4 17 -4 17 -7 18 C-5.06375702 11.79522136 -2.74390859 5.89174281 0 0 Z " fill="#C5B84C" transform="translate(57,123)"/>
<path d="M0 0 C-1.40631983 3.11896676 -3.09754896 5.45402854 -5.375 8 C-5.99246094 8.6909375 -6.60992187 9.381875 -7.24609375 10.09375 C-9.110649 12.12025994 -11.0132807 14.09274947 -13 16 C-12.41068228 12.64825544 -11.30386572 10.91304802 -9 8.4375 C-6.88166863 6.15112792 -6.01082314 5.03246941 -5 2 C-2 0 -2 0 0 0 Z " fill="#C4B755" transform="translate(321,289)"/>
<path d="M0 0 C0.66 0 1.32 0 2 0 C2.05451714 2.04136395 2.09302485 4.08315856 2.125 6.125 C2.14820313 7.26195312 2.17140625 8.39890625 2.1953125 9.5703125 C1.99672109 13.05757767 1.2524801 15.7553862 0 19 C-0.66 18.67 -1.32 18.34 -2 18 C-1.34 12.06 -0.68 6.12 0 0 Z " fill="#FC05FE" transform="translate(234,155)"/>
<path d="M0 0 C0.66 0.33 1.32 0.66 2 1 C-1.3 7.27 -4.6 13.54 -8 20 C-9.15957207 16.52128379 -8.77456651 15.65780355 -7.5625 12.3125 C-7.27503906 11.50425781 -6.98757812 10.69601563 -6.69140625 9.86328125 C-6.46324219 9.24839844 -6.23507813 8.63351563 -6 8 C-5.34 8 -4.68 8 -4 8 C-3.566875 6.8553125 -3.566875 6.8553125 -3.125 5.6875 C-2 3 -2 3 0 0 Z " fill="#A1983D" transform="translate(65,114)"/>
<path d="M0 0 C0.66 1.32 1.32 2.64 2 4 C2.66 4 3.32 4 4 4 C7 9.75 7 9.75 7 12 C7.66 12 8.32 12 9 12 C9 13.65 9 15.3 9 17 C4.57031674 13.06250377 0.31532468 8.02711692 -0.3125 2 C-0.209375 1.34 -0.10625 0.68 0 0 Z " fill="#CDC052" transform="translate(61,271)"/>
<path d="M0 0 C0.66 0.33 1.32 0.66 2 1 C1 4 1 4 -1.80078125 5.640625 C-2.95964844 6.17171875 -4.11851562 6.7028125 -5.3125 7.25 C-6.46363281 7.79140625 -7.61476563 8.3328125 -8.80078125 8.890625 C-12.09127157 10.03164972 -12.86023055 9.99307505 -16 9 C-14.39318359 8.15115234 -14.39318359 8.15115234 -12.75390625 7.28515625 C-11.3567202 6.54436633 -9.95958753 5.80347571 -8.5625 5.0625 C-7.85544922 4.68931641 -7.14839844 4.31613281 -6.41992188 3.93164062 C-2.99521342 2.27507665 -2.99521342 2.27507665 0 0 Z " fill="#9E9744" transform="translate(278,324)"/>
<path d="M0 0 C0.99 0 1.98 0 3 0 C3.33 1.32 3.66 2.64 4 4 C4.61875 4.04125 5.2375 4.0825 5.875 4.125 C8 5 8 5 9.3125 7.8125 C9.98272767 10.91991921 9.88024821 12.08061566 9 15 C7.49726004 12.68923915 5.99770448 10.37652089 4.5 8.0625 C4.07074219 7.40314453 3.64148438 6.74378906 3.19921875 6.06445312 C0 1.11328125 0 1.11328125 0 0 Z " fill="#A29B4B" transform="translate(320,106)"/>
<path d="M0 0 C0.99 0.33 1.98 0.66 3 1 C-1.33333333 5.33333333 -5.66666667 9.66666667 -10 14 C-8.96388194 9.16478237 -7.32381813 5.94730905 -3.5625 2.6875 C-2.96566406 2.15511719 -2.36882812 1.62273437 -1.75390625 1.07421875 C-1.17511719 0.71972656 -0.59632812 0.36523438 0 0 Z " fill="#A09742" transform="translate(85,88)"/>
<path d="M0 0 C6.74584873 0.50593865 11.47513992 3.85386893 16.5 8.125 C18 10 18 10 18 13 C17.34 13 16.68 13 16 13 C15.319375 11.700625 15.319375 11.700625 14.625 10.375 C11.46811112 5.23587856 5.29830783 3.3492497 0 1 C0 0.67 0 0.34 0 0 Z " fill="#F22BFD" transform="translate(279,178)"/>
<path d="M0 0 C5.98515697 0.30693113 10.49893296 3.22910606 15 7 C15 7.66 15 8.32 15 9 C9.26800429 7.53025751 4.66416601 4.55513098 0 1 C0 0.67 0 0.34 0 0 Z " fill="#D0C357" transform="translate(105,323)"/>
<path d="M0 0 C-3.52078685 2.01565047 -7.05088764 2.82990674 -11 3.6875 C-12.8253125 4.09548828 -12.8253125 4.09548828 -14.6875 4.51171875 C-17.64433877 4.94757352 -19.25086369 5.02405328 -22 4 C-14.65017418 1.29485578 -7.90221319 -0.24694416 0 0 Z " fill="#D0C464" transform="translate(238,346)"/>
<path d="M0 0 C4.66666667 4 9.33333333 8 14 12 C10.25 13.125 10.25 13.125 8 12 C8 11.01 8 10.02 8 9 C7.34 9 6.68 9 6 9 C4.4921875 7.5390625 4.4921875 7.5390625 2.875 5.625 C2.06675781 4.68527344 2.06675781 4.68527344 1.2421875 3.7265625 C0 2 0 2 0 0 Z " fill="#A29839" transform="translate(84,300)"/>
<path d="M0 0 C8.2835122 2.136 8.2835122 2.136 11.125 5.5625 C11.41375 6.366875 11.7025 7.17125 12 8 C11.67 8.66 11.34 9.32 11 10 C9.16375669 8.52444734 7.3310715 7.04446569 5.5 5.5625 C4.4790625 4.73878906 3.458125 3.91507812 2.40625 3.06640625 C1.6121875 2.38449219 0.818125 1.70257813 0 1 C0 0.67 0 0.34 0 0 Z " fill="#A59C49" transform="translate(288,73)"/>
<path d="M0 0 C4.8990005 0.40897518 6.6995983 2.39206367 9.8125 6.0625 C10.99779297 7.44115234 10.99779297 7.44115234 12.20703125 8.84765625 C12.79871094 9.55792969 13.39039063 10.26820312 14 11 C9.85878264 11 8.16365957 8.75914512 5.3125 6.0625 C4.80138672 5.59392578 4.29027344 5.12535156 3.76367188 4.64257812 C2.48385946 3.45503523 1.23873906 2.23032657 0 1 C0 0.67 0 0.34 0 0 Z " fill="#C1C1C1" transform="translate(314,44)"/>
<path d="M0 0 C-1.2065625 0.4021875 -1.2065625 0.4021875 -2.4375 0.8125 C-3.283125 1.204375 -4.12875 1.59625 -5 2 C-5.33 2.99 -5.66 3.98 -6 5 C-9.4352048 7.29013653 -10.985331 7.17842973 -15 7 C-12.40533198 4.94588781 -9.69670039 3.07422273 -6.9375 1.25 C-6.26589844 0.80140625 -5.59429687 0.3528125 -4.90234375 -0.109375 C-3 -1 -3 -1 0 0 Z " fill="#9CA1AB" transform="translate(306,354)"/>
<path d="M0 0 C3 1 3 1 4.203125 2.70703125 C4.54859375 3.40183594 4.8940625 4.09664063 5.25 4.8125 C5.60578125 5.49957031 5.9615625 6.18664062 6.328125 6.89453125 C7.11193544 9.35077442 6.84119973 10.60042386 6 13 C6 12.34 6 11.68 6 11 C5.34 11 4.68 11 4 11 C3.32880451 9.5437455 2.66318193 8.08492133 2 6.625 C1.62875 5.81289063 1.2575 5.00078125 0.875 4.1640625 C0 2 0 2 0 0 Z " fill="#A69C3F" transform="translate(56,260)"/>
<path d="M0 0 C0.66 0.33 1.32 0.66 2 1 C1.5875 1.680625 1.175 2.36125 0.75 3.0625 C-1.20965058 6.35191348 -3.1073853 9.67160863 -5 13 C-5.33 13 -5.66 13 -6 13 C-5.63118644 6.85310727 -4.09949571 4.30972626 0 0 Z " fill="#11FAFE" transform="translate(304,217)"/>
<path d="M0 0 C1.27609323 0.90933009 2.54565553 1.82782853 3.8125 2.75 C4.87404297 3.51570313 4.87404297 3.51570313 5.95703125 4.296875 C8.02977691 6.02482358 9.47375854 7.78526476 11 10 C7.14545893 8.86115832 3.87947313 7.87947313 1 5 C0.25 2.3125 0.25 2.3125 0 0 Z " fill="#ACADB1" transform="translate(81,322)"/>
<path d="M0 0 C0.33 0 0.66 0 1 0 C1.08089542 2.77141717 1.14044062 5.54047819 1.1875 8.3125 C1.21263672 9.09818359 1.23777344 9.88386719 1.26367188 10.69335938 C1.27333984 11.45068359 1.28300781 12.20800781 1.29296875 12.98828125 C1.3086792 13.68477783 1.32438965 14.38127441 1.34057617 15.09887695 C1 17 1 17 -2 20 C-1.34 13.4 -0.68 6.8 0 0 Z " fill="#929BAF" transform="translate(385,210)"/>
<path d="M0 0 C0.92399724 2.50718765 1.16892656 3.60065169 0.109375 6.10546875 C-0.33921875 6.79253906 -0.7878125 7.47960937 -1.25 8.1875 C-1.90742187 9.22970703 -1.90742187 9.22970703 -2.578125 10.29296875 C-4 12 -4 12 -7 13 C-5.35821735 8.22390502 -2.73453298 4.20617096 0 0 Z " fill="#CABE58" transform="translate(65,110)"/>
<path d="M0 0 C1.81618856 1.11903546 3.62785526 2.24541284 5.4375 3.375 C6.44683594 4.00148438 7.45617187 4.62796875 8.49609375 5.2734375 C11 7 11 7 12 9 C8.65626525 8.44271087 5.96687001 7.64826111 3 6 C3 5.01 3 4.02 3 3 C2.01 2.67 1.02 2.34 0 2 C0 1.34 0 0.68 0 0 Z " fill="#BCB15B" transform="translate(283,66)"/>
<path d="M0 0 C8 0.92307692 8 0.92307692 11 3 C11.33 3.99 11.66 4.98 12 6 C10.55903414 5.57405412 9.12231288 5.13373367 7.6875 4.6875 C6.88699219 4.44386719 6.08648437 4.20023437 5.26171875 3.94921875 C2.90035427 2.95817977 1.66120007 1.91925057 0 0 Z " fill="#CEC255" transform="translate(120,332)"/>
<path d="M0 0 C0.33 0.99 0.66 1.98 1 3 C-1.97 6.3 -4.94 9.6 -8 13 C-8.99 12.67 -9.98 12.34 -11 12 C-10.34 12 -9.68 12 -9 12 C-8.61714844 11.14148438 -8.61714844 11.14148438 -8.2265625 10.265625 C-6.86912841 7.75826267 -5.28025896 5.8669544 -3.375 3.75 C-2.74335938 3.04359375 -2.11171875 2.3371875 -1.4609375 1.609375 C-0.97882813 1.07828125 -0.49671875 0.5471875 0 0 Z " fill="#99944B" transform="translate(315,291)"/>
<path d="M0 0 C0.8971875 0.309375 0.8971875 0.309375 1.8125 0.625 C0.925625 1.181875 0.03875 1.73875 -0.875 2.3125 C-4.03029378 4.40353792 -6.58618111 6.87066235 -9.1875 9.625 C-9.5175 8.965 -9.8475 8.305 -10.1875 7.625 C-3.56304585 -0.61080786 -3.56304585 -0.61080786 0 0 Z " fill="#F124FD" transform="translate(197.1875,161.375)"/>
<path d="M0 0 C4.01146357 4.14517903 5.48393126 8.34348187 6 14 C5.54296875 16.27734375 5.54296875 16.27734375 5 18 C4.16112944 15.56427941 3.32873471 13.12666783 2.5 10.6875 C2.14228516 9.65206055 2.14228516 9.65206055 1.77734375 8.59570312 C0.76791737 5.61068511 0 3.17341086 0 0 Z " fill="#B4B4B4" transform="translate(356,132)"/>
<path d="M0 0 C2.64 0.33 5.28 0.66 8 1 C8.33 1.99 8.66 2.98 9 4 C9.66 4.33 10.32 4.66 11 5 C10.67 5.99 10.34 6.98 10 8 C8.33055479 6.85821872 6.6645052 5.71147095 5 4.5625 C4.071875 3.92441406 3.14375 3.28632812 2.1875 2.62890625 C1.465625 2.09136719 0.74375 1.55382812 0 1 C0 0.67 0 0.34 0 0 Z " fill="#A29B4B" transform="translate(275,64)"/>
<path d="M0 0 C7.48291572 6.15034169 7.48291572 6.15034169 10 10 C6.7451198 9.41978222 5.06347592 8.47352859 2.75 6.125 C2.22921875 5.61195313 1.7084375 5.09890625 1.171875 4.5703125 C0 3 0 3 0 0 Z " fill="#C3C3C3" transform="translate(52,324)"/>
<path d="M0 0 C2.86724686 0.57344937 3.8614515 0.8614515 6 3 C6.1953125 5.1640625 6.1953125 5.1640625 6.125 7.625 C6.10695312 8.44226563 6.08890625 9.25953125 6.0703125 10.1015625 C6.03550781 11.04128906 6.03550781 11.04128906 6 12 C2.70890881 9.05959885 2.08300505 6.25466268 1 2 C0.67 1.34 0.34 0.68 0 0 Z " fill="#29FBFE" transform="translate(155,161)"/>
<path d="M0 0 C-2.09950586 0.86555948 -4.2047907 1.71711277 -6.3125 2.5625 C-8.07013672 3.27599609 -8.07013672 3.27599609 -9.86328125 4.00390625 C-13 5 -13 5 -16 4 C-6.47949173 -1.78697561 -6.47949173 -1.78697561 0 0 Z " fill="#9C9442" transform="translate(149,51)"/>
<path d="M0 0 C1 2 1 2 0.22265625 4.6015625 C-0.16019531 5.59929687 -0.54304688 6.59703125 -0.9375 7.625 C-1.50791016 9.12933594 -1.50791016 9.12933594 -2.08984375 10.6640625 C-2.39019531 11.43492187 -2.69054687 12.20578125 -3 13 C-3.33 13 -3.66 13 -4 13 C-4.17673419 8.4932782 -4.13551182 5.03374456 -2 1 C-1.34 0.67 -0.68 0.34 0 0 Z " fill="#C4C4C4" transform="translate(17,123)"/>
<path d="M0 0 C0 0.66 0 1.32 0 2 C-3.81679612 4.90803514 -7.39571066 6.68448876 -12 8 C-4.43243243 0 -4.43243243 0 0 0 Z " fill="#C9BD59" transform="translate(115,63)"/>
<path d="M0 0 C0.33 0.99 0.66 1.98 1 3 C1.66 3 2.32 3 3 3 C5.29612756 12.41002278 5.29612756 12.41002278 5 17 C2.14362701 11.72669601 -0.57228292 6.10435119 0 0 Z " fill="#9C9547" transform="translate(338,135)"/>
<path d="M0 0 C-0.66 1.65 -1.32 3.3 -2 5 C-4.64 5.33 -7.28 5.66 -10 6 C-7.35570758 3.077361 -4.105808 0 0 0 Z " fill="#C0B557" transform="translate(125,57)"/>
<path d="M0 0 C-0.99 1.485 -0.99 1.485 -2 3 C-4.6015625 3.51171875 -4.6015625 3.51171875 -7.625 3.6875 C-9.12933594 3.78611328 -9.12933594 3.78611328 -10.6640625 3.88671875 C-11.82035156 3.94279297 -11.82035156 3.94279297 -13 4 C-10.81006393 1.81006393 -9.4012702 1.27802011 -6.5 0.3125 C-5.7059375 0.04050781 -4.911875 -0.23148438 -4.09375 -0.51171875 C-2 -1 -2 -1 0 0 Z " fill="#9B9FA9" transform="translate(144,31)"/>
<path d="M0 0 C-3.63 1.98 -7.26 3.96 -11 6 C-11 5.01 -11 4.02 -11 3 C-9.73581754 2.30034557 -8.46334598 1.61565237 -7.1875 0.9375 C-6.47980469 0.55464844 -5.77210938 0.17179687 -5.04296875 -0.22265625 C-3 -1 -3 -1 0 0 Z " fill="#CBBF5A" transform="translate(279,329)"/>
<path d="M0 0 C0.99 0.495 0.99 0.495 2 1 C4.38056989 8.64288227 4.38056989 8.64288227 3 13 C2.67 11.02 2.34 9.04 2 7 C1.34 7 0.68 7 0 7 C0 4.69 0 2.38 0 0 Z " fill="#B8AA39" transform="translate(47,236)"/>
<path d="M0 0 C5.62917348 0.40208382 8.00386479 2.28930302 12 6 C11.34 6.66 10.68 7.32 10 8 C9.52949219 7.59007812 9.05898437 7.18015625 8.57421875 6.7578125 C7.95160156 6.21898437 7.32898438 5.68015625 6.6875 5.125 C6.07261719 4.59132812 5.45773438 4.05765625 4.82421875 3.5078125 C2.86501788 1.8359553 2.86501788 1.8359553 0 0 Z " fill="#EF2CFC" transform="translate(171,137)"/>
<path d="M0 0 C-1.50223584 4.20626034 -4.28550034 5.73900021 -8 8 C-6.65580512 3.85539913 -4.87800266 0 0 0 Z " fill="#A49A3F" transform="translate(108,69)"/>
<path d="M0 0 C2.97 0.33 5.94 0.66 9 1 C9 1.66 9 2.32 9 3 C10.32 3.66 11.64 4.32 13 5 C9.70342144 5 7.83635572 4.25666731 4.8125 3 C3.91144531 2.62875 3.01039063 2.2575 2.08203125 1.875 C1.05142578 1.441875 1.05142578 1.441875 0 1 C0 0.67 0 0.34 0 0 Z " fill="#9B954B" transform="translate(252,53)"/>
<path d="M0 0 C0 4.07746885 -1.52068051 5.83198065 -4 9 C-6.140625 9.6796875 -6.140625 9.6796875 -8 10 C-7.04367001 8.70684939 -6.08486149 7.41553147 -5.125 6.125 C-4.59132813 5.40570313 -4.05765625 4.68640625 -3.5078125 3.9453125 C-2 2 -2 2 0 0 Z " fill="#BFC0C0" transform="translate(341,321)"/>
<path d="M0 0 C0.99 0.33 1.98 0.66 3 1 C-1.455 4.465 -1.455 4.465 -6 8 C-6.33 7.01 -6.66 6.02 -7 5 C-5.68 4.67 -4.36 4.34 -3 4 C-3 3.34 -3 2.68 -3 2 C-2.01 2 -1.02 2 0 2 C0 1.34 0 0.68 0 0 Z " fill="#CABD5B" transform="translate(294,315)"/>
<path d="M0 0 C0.99 0 1.98 0 3 0 C2.67 1.98 2.34 3.96 2 6 C1.34 6 0.68 6 0 6 C-0.33 7.32 -0.66 8.64 -1 10 C-2.46726798 6.18510326 -1.43336419 3.70988378 0 0 Z " fill="#9FA3AD" transform="translate(31,140)"/>
<path d="M0 0 C3 3 6 6 9 9 C8.67 9.66 8.34 10.32 8 11 C6.84501103 9.92643323 5.70132133 8.84070212 4.5625 7.75 C3.92441406 7.14671875 3.28632812 6.5434375 2.62890625 5.921875 C0.91483694 3.89951984 0.40641122 2.58729395 0 0 Z " fill="#97924D" transform="translate(75,289)"/>
<path d="M0 0 C0.99 0 1.98 0 3 0 C1.6302836 3.99500618 -0.25722422 6.80009492 -3 10 C-2.21302675 6.58978257 -1.12880057 3.31114834 0 0 Z " fill="#CACACB" transform="translate(362,291)"/>
<path d="M0 0 C0.33 0 0.66 0 1 0 C1 2.64 1 5.28 1 8 C1.66 8 2.32 8 3 8 C2.67 9.98 2.34 11.96 2 14 C0 12 0 12 -0.1953125 9.1796875 C-0.17210937 8.08914062 -0.14890625 6.99859375 -0.125 5.875 C-0.10695313 4.77929688 -0.08890625 3.68359375 -0.0703125 2.5546875 C-0.04710937 1.71164063 -0.02390625 0.86859375 0 0 Z " fill="#F731FD" transform="translate(298,198)"/>
<path d="M0 0 C0.99 0 1.98 0 3 0 C1.50902342 3.7952131 -0.75700849 5.61042731 -4 8 C-2.25 2.25 -2.25 2.25 0 0 Z " fill="#B1B2B3" transform="translate(74,72)"/>
<path d="M0 0 C6.0546875 -0.1953125 6.0546875 -0.1953125 8 0 C10 2 10 2 10 4 C6.7 3.01 3.4 2.02 0 1 C0 0.67 0 0.34 0 0 Z " fill="#A9ACB1" transform="translate(259,36)"/>
<path d="M0 0 C0.66 0.33 1.32 0.66 2 1 C0.35 2.98 -1.3 4.96 -3 7 C-4.32 6.67 -5.64 6.34 -7 6 C-4.69 4.02 -2.38 2.04 0 0 Z " fill="#C2C2C2" transform="translate(316,345)"/>
<path d="M0 0 C1.98 0.66 3.96 1.32 6 2 C6 2.66 6 3.32 6 4 C6.66 4 7.32 4 8 4 C7.67 4.99 7.34 5.98 7 7 C5.83040013 6.02433888 4.66438823 5.044375 3.5 4.0625 C2.8503125 3.51722656 2.200625 2.97195313 1.53125 2.41015625 C1.0259375 1.94480469 0.520625 1.47945313 0 1 C0 0.67 0 0.34 0 0 Z " fill="#D2C55D" transform="translate(84,305)"/>
<path d="M0 0 C3.5786304 1.65167557 6.74820188 3.78286492 10 6 C9.01 6.33 8.02 6.66 7 7 C5.17578125 6.07421875 5.17578125 6.07421875 3.3125 4.6875 C2.37857422 4.01267578 2.37857422 4.01267578 1.42578125 3.32421875 C0.95527344 2.88722656 0.48476562 2.45023438 0 2 C0 1.34 0 0.68 0 0 Z " fill="#27F5FD" transform="translate(235,253)"/>
<path d="M0 0 C2.46313739 1.82748903 3.83428618 3.22976216 4.48828125 6.26953125 C4.72518293 8.51479346 4.90361349 10.74455578 5 13 C3.09610151 10.14415227 2.30537823 8.0688238 1.375 4.8125 C0.98441406 3.46091797 0.98441406 3.46091797 0.5859375 2.08203125 C0.39257812 1.39496094 0.19921875 0.70789063 0 0 Z " fill="#B3B3B3" transform="translate(375,128)"/>
<path d="M0 0 C0.33 0.99 0.66 1.98 1 3 C-0.21484375 4.82421875 -0.21484375 4.82421875 -1.9375 6.6875 C-2.50339844 7.31011719 -3.06929688 7.93273437 -3.65234375 8.57421875 C-4.09707031 9.04472656 -4.54179688 9.51523438 -5 10 C-5.66 9.67 -6.32 9.34 -7 9 C-4.69 6.03 -2.38 3.06 0 0 Z " fill="#CEC25F" transform="translate(77,94)"/>
<path d="M0 0 C2.64 0 5.28 0 8 0 C5.06279492 1.52299523 2.0831351 2.80100302 -1 4 C-1.66 3.34 -2.32 2.68 -3 2 C-2.01 2 -1.02 2 0 2 C0 1.34 0 0.68 0 0 Z " fill="#A5A8AE" transform="translate(150,8)"/>
<path d="M0 0 C0 0.99 0 1.98 0 3 C-2.97 3.66 -5.94 4.32 -9 5 C-7.36885863 1.73771726 -3.62038485 0 0 0 Z " fill="#BFBFBF" transform="translate(295,361)"/>
<path d="M0 0 C-5.75 4 -5.75 4 -8 4 C-7.67 2.68 -7.34 1.36 -7 0 C-3.98968256 -0.93423645 -3.13349732 -1.04449911 0 0 Z " fill="#C7BC58" transform="translate(287,324)"/>
<path d="M0 0 C0 3.60777515 -0.9904432 5.06295544 -3 8 C-3.99 8.495 -3.99 8.495 -5 9 C-4.50769231 3.46153846 -4.50769231 3.46153846 -1.9375 1.125 C-1.298125 0.75375 -0.65875 0.3825 0 0 Z " fill="#AEAFB2" transform="translate(360,295)"/>
<path d="M0 0 C-1.44390925 3.80666984 -3.34952803 5.26602582 -7 7 C-7.66 6.67 -8.32 6.34 -9 6 C-7.8803014 4.99406757 -6.7540588 3.9954151 -5.625 3 C-4.68527344 2.1646875 -4.68527344 2.1646875 -3.7265625 1.3125 C-2 0 -2 0 0 0 Z " fill="#F726FD" transform="translate(292,222)"/>
<path d="M0 0 C1.45606519 4.52092968 0.27032841 7.51648796 -1 12 C-1.33 12 -1.66 12 -2 12 C-2.33 9.36 -2.66 6.72 -3 4 C-2.34 3.67 -1.68 3.34 -1 3 C-0.67 2.01 -0.34 1.02 0 0 Z " fill="#AFB1B5" transform="translate(31,146)"/>
<path d="M0 0 C-2.62198774 2.15377564 -4.64404172 3.40072174 -8 4 C-8 3.01 -8 2.02 -8 1 C-5.29120665 -0.35439668 -2.99066732 -0.06501451 0 0 Z " fill="#A0A2A7" transform="translate(273,351)"/>
<path d="M0 0 C7.50769231 -0.36923077 7.50769231 -0.36923077 10 1.5 C10.495 2.2425 10.495 2.2425 11 3 C9.741875 2.87625 8.48375 2.7525 7.1875 2.625 C6.12595703 2.52058594 6.12595703 2.52058594 5.04296875 2.4140625 C3 2 3 2 0 0 Z " fill="#D0C45F" transform="translate(147,344)"/>
<path d="M0 0 C5.53846154 -0.36923077 5.53846154 -0.36923077 7.875 1.5 C8.24625 1.995 8.6175 2.49 9 3 C8.01 3.495 8.01 3.495 7 4 C4.64018187 3.06421005 2.30368736 2.06652192 0 1 C0 0.67 0 0.34 0 0 Z " fill="#CEC157" transform="translate(132,338)"/>
<path d="M0 0 C0.93423645 3.01031744 1.04449911 3.86650268 0 7 C-0.99 7.33 -1.98 7.66 -3 8 C-2.25 2.25 -2.25 2.25 0 0 Z " fill="#0BFAFE" transform="translate(231,219)"/>
<path d="M0 0 C0.33 0 0.66 0 1 0 C1.25 5.625 1.25 5.625 -1 9 C-1.66 9 -2.32 9 -3 9 C-2.01 6.03 -1.02 3.06 0 0 Z " fill="#C8BC56" transform="translate(57,123)"/>
<path d="M0 0 C1 2 1 2 0.0625 5.125 C-0.288125 6.07375 -0.63875 7.0225 -1 8 C-1.99 8 -2.98 8 -4 8 C-2.87548273 5.0280615 -1.77706209 2.66559313 0 0 Z " fill="#AAACB1" transform="translate(342,285)"/>
<path d="M0 0 C0.66 0 1.32 0 2 0 C0.85981998 3.42054006 0.07541482 4.2426201 -3 6 C-5.25 5.6875 -5.25 5.6875 -7 5 C-6.030625 4.360625 -5.06125 3.72125 -4.0625 3.0625 C-1.23963731 1.3034741 -1.23963731 1.3034741 0 0 Z " fill="#2DFBFE" transform="translate(220,239)"/>
<path d="M0 0 C0.33 0 0.66 0 1 0 C1.19622241 4.21878192 0.80230168 7.17010894 -1 11 C-1.33 11 -1.66 11 -2 11 C-2 8.69 -2 6.38 -2 4 C-1.34 4 -0.68 4 0 4 C0 2.68 0 1.36 0 0 Z " fill="#B9AB39" transform="translate(45,161)"/>
<path d="M0 0 C0.33 0.99 0.66 1.98 1 3 C-0.65 4.65 -2.3 6.3 -4 8 C-4.66 7.67 -5.32 7.34 -6 7 C-4.02 4.69 -2.04 2.38 0 0 Z " fill="#CDC161" transform="translate(84,86)"/>
</svg>
